<svg width="269" height="251" viewBox="0 0 269 251" fill="none" xmlns="http://www.w3.org/2000/svg">
<g clip-path="url(#clip0_11_2)">
<path d="M104.5 246V240H110V246H104.5Z" fill="#1A2829" stroke="black"/>
<path d="M132 248.5V242.5H138V248.5H132Z" fill="#1A2829" stroke="black"/>
<path d="M162.5 246V240H167.5V246H162.5Z" fill="#1A2829" stroke="black"/>
<g filter="url(#filter0_ii_11_2)">
<path d="M106 219C115.5 217.5 134.9 214.4 136.5 214C145.667 215.833 164.4 219.5 166 219.5C167.6 219.5 168 221.167 168 222L167 239.5H162.5V223.5H140L139 243H131.5L130.5 223.5H110.5V239.5C110 240.5 105 240 105 239.5C105 239 104.5 221.5 104.5 220.5C104.5 219.7 105.5 219.167 106 219Z" fill="#BEC5CF"/>
</g>
<path d="M130.5 223.5H110.5V239.5C110 240.5 105 240 105 239.5C105 239 104.5 221.5 104.5 220.5C104.5 219.7 105.5 219.167 106 219C115.5 217.5 134.9 214.4 136.5 214C145.667 215.833 164.4 219.5 166 219.5C167.6 219.5 168 221.167 168 222L167 239.5H162.5V223.5H140M130.5 223.5L131.5 243H139L140 223.5M130.5 223.5H140" stroke="black"/>
<g filter="url(#filter1_ii_11_2)">
<path d="M140.5 169.907C137.3 164.642 132.5 167.713 130.5 169.907V214.335C134.5 219.162 138.333 216.346 140.5 214.335V169.907Z" fill="#C2CCD6"/>
</g>
<path d="M140.5 169.907C137.3 164.642 132.5 167.713 130.5 169.907V214.335C134.5 219.162 138.333 216.346 140.5 214.335V169.907Z" stroke="black"/>
<g filter="url(#filter2_d_11_2)">
<path d="M81 27H18.5L20.5 103.5H83L81 27Z" fill="#BFBBB4"/>
<path d="M81 27H18.5L20.5 103.5H83L81 27Z" stroke="black"/>
</g>
<g filter="url(#filter3_d_11_2)">
<path d="M74 33.5H26.5V84.5H74V33.5Z" fill="#DAC902"/>
<path d="M74 33.5H26.5V84.5H74V33.5Z" stroke="black"/>
</g>
<rect x="29.5" y="91" width="39" height="4" fill="black"/>
<path d="M26.5 95.5V103.5H74V95.5H26.5Z" fill="#ABA49A" stroke="black"/>
<g filter="url(#filter4_ii_11_2)">
<path d="M0 112V103H97V112H89.5V238.5C85.9 240.9 81.5 240 79 238.5V112H64V245C58.8 247 55.5 245.833 54.5 245V112H37V233C32.6 236.2 28.5 234.333 27 233V112H18V246.5C14.4 249.3 10.1667 247.667 8.5 246.5V112H0Z" fill="#421A0E"/>
</g>
<path d="M8.5 112H0V103H97V112H89.5M8.5 112V246.5C10.1667 247.667 14.4 249.3 18 246.5V112M8.5 112H18M18 112H27M27 112V233C28.5 234.333 32.6 236.2 37 233V112M27 112H37M37 112H54.5M54.5 112V245C55.5 245.833 58.8 247 64 245V112M54.5 112H64M64 112H79M79 112V238.5C81.5 240 85.9 240.9 89.5 238.5V112M79 112H89.5" stroke="black"/>
<path d="M84.4172 78.0252C90.4172 26.8252 103.584 6.02517 109.417 2.02517L112.917 32.0252L153.917 31.0252L149.917 29.0252C154.917 19.6918 166.017 1.22517 170.417 2.02517V49.0254C176.844 68.7003 187.492 105.058 186.908 117.077C193.13 102.029 197.732 81.8535 199.917 69.0252C208.717 39.4252 231.251 33.6918 241.417 34.5252C249.584 36.0252 266.017 41.5252 266.417 51.5252C266.817 61.5252 246.251 67.3585 235.917 69.0252C229.417 70.5252 215.417 87.0252 212.917 110.025C210.917 128.425 200.084 139.692 194.917 143.025C176.117 153.425 166.751 147.359 164.417 143.025L166.917 148.025C155.599 155.57 149.354 151.892 146.858 147.959C146.601 148.554 146.289 149.24 145.917 150.025C142.317 157.625 114.417 154.859 100.917 152.525C96.8305 155.497 90.0003 157.331 82.4172 156.381C82.8172 175.066 79.2506 180.596 77.4172 181.025C67.0172 181.825 65.8046 159.859 66.4713 150.025C65.6114 149.408 64.7591 148.742 63.9172 148.025C48.9154 135.246 67.7123 104.462 77.9828 91.2122C73.4504 96.0183 61.3255 98.8589 53.9172 95.5252C45.9172 91.9252 50.5839 88.3585 53.9172 87.0252C67.1172 90.6252 79.7505 82.5252 84.4172 78.0252Z" fill="#4A4144"/>
<path d="M115.417 182.525C108.217 184.925 109.084 173.192 110.417 168.025L124.417 169.025C124.584 171.859 122.617 180.125 115.417 182.525Z" fill="#4A4144"/>
<path d="M100.917 152.525C99.4172 152.192 95.9172 150.825 93.9172 148.025M100.917 152.525C96.8305 155.497 90.0003 157.331 82.4172 156.381M100.917 152.525C114.417 154.859 142.317 157.625 145.917 150.025C149.517 142.425 147.417 144.192 145.917 146.025C147.417 150.359 153.717 156.825 166.917 148.025L164.417 143.025C166.751 147.359 176.117 153.425 194.917 143.025C200.084 139.692 210.917 128.425 212.917 110.025C215.417 87.0252 229.417 70.5252 235.917 69.0252C246.251 67.3585 266.817 61.5252 266.417 51.5252C266.017 41.5252 249.584 36.0252 241.417 34.5252C231.251 33.6918 208.717 39.4252 199.917 69.0252C197.534 83.014 192.277 105.739 185.181 121.025M170.417 137.025C175.864 136.874 180.863 130.326 185.181 121.025M112.917 32.0252L109.417 2.02517C103.584 6.02517 90.4172 26.8252 84.4172 78.0252C79.7505 82.5252 67.1172 90.6252 53.9172 87.0252C50.5839 88.3585 45.9172 91.9252 53.9172 95.5252C61.9172 99.1252 75.4172 95.5252 78.9172 90.0252C68.9172 102.525 48.4477 134.847 63.9172 148.025C69.8939 153.116 76.3931 155.627 82.4172 156.381M112.917 32.0252L153.917 31.0252L149.917 29.0252C154.917 19.6918 166.017 1.22517 170.417 2.02517V49.0254C178.093 72.5254 191.792 119.825 185.181 121.025M112.917 32.0252H109.417M82.4172 156.381C82.8172 175.066 79.2506 180.596 77.4172 181.025C67.0172 181.825 65.8046 159.859 66.4713 150.025L73.4172 153.945L82.4172 156.381ZM110.417 168.025C109.084 173.192 108.217 184.925 115.417 182.525C122.617 180.125 124.584 171.859 124.417 169.025L110.417 168.025Z" stroke="black" stroke-width="4" stroke-linejoin="round"/>
<path d="M108 7.5C103 14 89.4 42.9 87 78.5" stroke="#D9C802" stroke-opacity="0.41" stroke-width="2" stroke-linejoin="round"/>
<path d="M54 90.5C58.8333 91.6667 70 91.4 82 83" stroke="#D9C802" stroke-opacity="0.41" stroke-width="2" stroke-linejoin="round"/>
<path d="M79 93C75.3334 97.3333 68.2 106.6 69 109" stroke="#D9C802" stroke-opacity="0.41" stroke-width="2" stroke-linejoin="round"/>
<path d="M168 6.5C164.333 10.5 156.3 20.4 153.5 28" stroke="#D9C802" stroke-opacity="0.41" stroke-width="2" stroke-linejoin="round"/>
<path d="M68.5 108.5C63.1667 118.667 54.8 140.1 64 144.5" stroke="#866F75" stroke-width="2"/>
<path d="M107.5 9C108.3 10.2 109.5 23.1667 110 29.5" stroke="#866F75" stroke-width="2"/>
<path d="M110.5 35L155 34" stroke="#866F75" stroke-width="2"/>
<path d="M168 9.5V50C171.167 58.3333 177.2 75.4 176 77" stroke="#866F75" stroke-width="2"/>
<path d="M201 79C202.167 68 209.1 44.8 227.5 40C245.9 35.2 258.833 43 263 47.5C264 48.3333 265.4 51.1 263 55.5" stroke="#9E9797" stroke-width="2"/>
<g filter="url(#filter5_i_11_2)">
<path d="M100.5 166.5C92.5 159.3 98.1666 154.833 102 153.5C118.833 154 152.6 154.7 153 153.5C153.4 152.3 163.5 151 168.5 150.5V162C168.5 164.4 167.5 165.333 167 165.5C134.6 173.1 109.167 169.333 100.5 166.5Z" fill="#E50E0F"/>
</g>
<path d="M100.5 166.5C92.5 159.3 98.1666 154.833 102 153.5C118.833 154 152.6 154.7 153 153.5C153.4 152.3 163.5 151 168.5 150.5V162C168.5 164.4 167.5 165.333 167 165.5C134.6 173.1 109.167 169.333 100.5 166.5Z" stroke="black" stroke-width="3"/>
<g filter="url(#filter6_ii_11_2)">
<path d="M168.5 128.876C174.5 114.076 171 94.3758 168.5 86.3757C147.386 81.8969 132.327 84.5822 124.5 87.6276L121.5 131.376C136.7 136.176 143.167 132.376 144.5 129.876C145.333 129.543 148 129.376 152 131.376C156 133.376 164.667 130.543 168.5 128.876Z" fill="#E50E0F"/>
</g>
<path d="M168.5 128.876C174.5 114.076 171 94.3758 168.5 86.3757C147.386 81.8969 132.327 84.5822 124.5 87.6276L121.5 131.376C136.7 136.176 143.167 132.376 144.5 129.876C145.333 129.543 148 129.376 152 131.376C156 133.376 164.667 130.543 168.5 128.876Z" stroke="#222124" stroke-width="2"/>
<path d="M119 89C119.4 88.6 122.5 87.3333 124 87L120.5 131C109.5 119.5 118.5 89.5 119 89Z" fill="#4A181B"/>
<path d="M124 87L124.997 87.0793L125.104 85.7302L123.783 86.0238L124 87ZM119 89L118.293 88.2929H118.293L119 89ZM120.5 131L119.777 131.691C120.05 131.976 120.464 132.074 120.835 131.942C121.207 131.81 121.466 131.472 121.497 131.079L120.5 131ZM123.783 86.0238C122.951 86.2086 121.741 86.6333 120.713 87.0476C120.193 87.2575 119.699 87.4731 119.302 87.6664C119.104 87.7627 118.92 87.8585 118.764 87.9494C118.632 88.0264 118.441 88.1444 118.293 88.2929L119.707 89.7071C119.659 89.7556 119.653 89.7465 119.772 89.6764C119.869 89.6202 120.004 89.5487 120.177 89.4648C120.52 89.2977 120.969 89.1009 121.462 88.9024C122.459 88.5 123.549 88.1247 124.217 87.9762L123.783 86.0238ZM118.293 88.2929C118.172 88.4134 118.104 88.544 118.09 88.5711C118.06 88.6264 118.034 88.6827 118.013 88.7315C117.969 88.831 117.922 88.9524 117.874 89.0867C117.775 89.3583 117.653 89.7294 117.513 90.184C117.235 91.0957 116.88 92.3727 116.505 93.9207C115.755 97.0158 114.917 101.217 114.443 105.771C113.969 110.32 113.853 115.258 114.567 119.811C115.279 124.356 116.832 128.612 119.777 131.691L121.223 130.309C118.668 127.638 117.221 123.832 116.543 119.501C115.865 115.18 115.968 110.43 116.432 105.979C116.895 101.533 117.714 97.4217 118.448 94.3918C118.815 92.8773 119.16 91.6387 119.426 90.7691C119.559 90.3331 119.671 89.9971 119.754 89.7688C119.796 89.6531 119.826 89.5763 119.845 89.5322C119.856 89.5092 119.857 89.5074 119.851 89.5186C119.848 89.5244 119.838 89.5424 119.822 89.5672C119.81 89.5859 119.771 89.6429 119.707 89.7071L118.293 88.2929ZM121.497 131.079L124.997 87.0793L123.003 86.9207L119.503 130.921L121.497 131.079Z" fill="#222124"/>
<path d="M136.5 114.5C136.5 118.5 138.5 119.5 141.5 119.5C145 119.167 151.5 118.5 154.5 118.5C157.05 118.5 157 117 157 113C157 109.8 155.667 109 155 109L140.5 109.5C136.5 110 136.5 110.92 136.5 114.499V114.5Z" fill="#4C1D0B"/>
<g filter="url(#filter7_ii_11_2)">
<path d="M152.5 116.65C149.3 111.85 144.5 114.65 142.5 116.65V157.15C146.5 161.55 150.333 158.984 152.5 157.15V116.65Z" fill="#C2CCD6"/>
</g>
<path d="M152.5 116.65C149.3 111.85 144.5 114.65 142.5 116.65V157.15C146.5 161.55 150.333 158.984 152.5 157.15V116.65Z" stroke="black"/>
<path d="M18.5 27C14 29.8333 4.8 35.7 4 36.5V103H20L18.5 27Z" fill="#8A8582" stroke="black"/>
<path d="M35.9231 49L34.5 57.0417H40.4231L40.4231 50.5833V63.5" stroke="black"/>
<path d="M58.9231 49L57.5 57.0417H63.4231L63.4231 50.5833V63.5" stroke="black"/>
<path d="M53.5 51H46.5V63H53.5V51Z" stroke="black"/>
</g>
<defs>
<filter id="filter0_ii_11_2" x="104" y="213.488" width="64.5" height="30.0122" filterUnits="userSpaceOnUse" color-interpolation-filters="sRGB">
<feFlood flood-opacity="0" result="BackgroundImageFix"/>
<feBlend mode="normal" in="SourceGraphic" in2="BackgroundImageFix" result="shape"/>
<feColorMatrix in="SourceAlpha" type="matrix" values="0 0 0 0 0 0 0 0 0 0 0 0 0 0 0 0 0 0 127 0" result="hardAlpha"/>
<feOffset/>
<feGaussianBlur stdDeviation="5.2"/>
<feComposite in2="hardAlpha" operator="arithmetic" k2="-1" k3="1"/>
<feColorMatrix type="matrix" values="0 0 0 0 0 0 0 0 0 0 0 0 0 0 0 0 0 0 0.25 0"/>
<feBlend mode="normal" in2="shape" result="effect1_innerShadow_11_2"/>
<feColorMatrix in="SourceAlpha" type="matrix" values="0 0 0 0 0 0 0 0 0 0 0 0 0 0 0 0 0 0 127 0" result="hardAlpha"/>
<feOffset dx="-2" dy="1"/>
<feComposite in2="hardAlpha" operator="arithmetic" k2="-1" k3="1"/>
<feColorMatrix type="matrix" values="0 0 0 0 1 0 0 0 0 1 0 0 0 0 1 0 0 0 0.5 0"/>
<feBlend mode="normal" in2="effect1_innerShadow_11_2" result="effect2_innerShadow_11_2"/>
</filter>
<filter id="filter1_ii_11_2" x="130" y="166.5" width="11" height="51" filterUnits="userSpaceOnUse" color-interpolation-filters="sRGB">
<feFlood flood-opacity="0" result="BackgroundImageFix"/>
<feBlend mode="normal" in="SourceGraphic" in2="BackgroundImageFix" result="shape"/>
<feColorMatrix in="SourceAlpha" type="matrix" values="0 0 0 0 0 0 0 0 0 0 0 0 0 0 0 0 0 0 127 0" result="hardAlpha"/>
<feOffset dx="-2" dy="1"/>
<feComposite in2="hardAlpha" operator="arithmetic" k2="-1" k3="1"/>
<feColorMatrix type="matrix" values="0 0 0 0 1 0 0 0 0 1 0 0 0 0 1 0 0 0 0.25 0"/>
<feBlend mode="normal" in2="shape" result="effect1_innerShadow_11_2"/>
<feColorMatrix in="SourceAlpha" type="matrix" values="0 0 0 0 0 0 0 0 0 0 0 0 0 0 0 0 0 0 127 0" result="hardAlpha"/>
<feOffset/>
<feGaussianBlur stdDeviation="3.35"/>
<feComposite in2="hardAlpha" operator="arithmetic" k2="-1" k3="1"/>
<feColorMatrix type="matrix" values="0 0 0 0 0 0 0 0 0 0 0 0 0 0 0 0 0 0 1 0"/>
<feBlend mode="normal" in2="effect1_innerShadow_11_2" result="effect2_innerShadow_11_2"/>
</filter>
<filter id="filter2_d_11_2" x="13.9868" y="26.5" width="73.5264" height="85.5" filterUnits="userSpaceOnUse" color-interpolation-filters="sRGB">
<feFlood flood-opacity="0" result="BackgroundImageFix"/>
<feColorMatrix in="SourceAlpha" type="matrix" values="0 0 0 0 0 0 0 0 0 0 0 0 0 0 0 0 0 0 127 0" result="hardAlpha"/>
<feOffset dy="4"/>
<feGaussianBlur stdDeviation="2"/>
<feComposite in2="hardAlpha" operator="out"/>
<feColorMatrix type="matrix" values="0 0 0 0 0 0 0 0 0 0 0 0 0 0 0 0 0 0 0.25 0"/>
<feBlend mode="normal" in2="BackgroundImageFix" result="effect1_dropShadow_11_2"/>
<feBlend mode="normal" in="SourceGraphic" in2="effect1_dropShadow_11_2" result="shape"/>
</filter>
<filter id="filter3_d_11_2" x="3.9" y="-11.1" width="136.7" height="140.2" filterUnits="userSpaceOnUse" color-interpolation-filters="sRGB">
<feFlood flood-opacity="0" result="BackgroundImageFix"/>
<feColorMatrix in="SourceAlpha" type="matrix" values="0 0 0 0 0 0 0 0 0 0 0 0 0 0 0 0 0 0 127 0" result="hardAlpha"/>
<feOffset dx="22"/>
<feGaussianBlur stdDeviation="22.05"/>
<feComposite in2="hardAlpha" operator="out"/>
<feColorMatrix type="matrix" values="0 0 0 0 0.988235 0 0 0 0 0.933333 0 0 0 0 0.129412 0 0 0 1 0"/>
<feBlend mode="normal" in2="BackgroundImageFix" result="effect1_dropShadow_11_2"/>
<feBlend mode="normal" in="SourceGraphic" in2="effect1_dropShadow_11_2" result="shape"/>
</filter>
<filter id="filter4_ii_11_2" x="-2.5" y="102.5" width="100" height="148.046" filterUnits="userSpaceOnUse" color-interpolation-filters="sRGB">
<feFlood flood-opacity="0" result="BackgroundImageFix"/>
<feBlend mode="normal" in="SourceGraphic" in2="BackgroundImageFix" result="shape"/>
<feColorMatrix in="SourceAlpha" type="matrix" values="0 0 0 0 0 0 0 0 0 0 0 0 0 0 0 0 0 0 127 0" result="hardAlpha"/>
<feOffset/>
<feGaussianBlur stdDeviation="3.65"/>
<feComposite in2="hardAlpha" operator="arithmetic" k2="-1" k3="1"/>
<feColorMatrix type="matrix" values="0 0 0 0 0 0 0 0 0 0 0 0 0 0 0 0 0 0 1 0"/>
<feBlend mode="normal" in2="shape" result="effect1_innerShadow_11_2"/>
<feColorMatrix in="SourceAlpha" type="matrix" values="0 0 0 0 0 0 0 0 0 0 0 0 0 0 0 0 0 0 127 0" result="hardAlpha"/>
<feOffset dx="-2" dy="2"/>
<feGaussianBlur stdDeviation="1.05"/>
<feComposite in2="hardAlpha" operator="arithmetic" k2="-1" k3="1"/>
<feColorMatrix type="matrix" values="0 0 0 0 1 0 0 0 0 1 0 0 0 0 1 0 0 0 0.25 0"/>
<feBlend mode="normal" in2="effect1_innerShadow_11_2" result="effect2_innerShadow_11_2"/>
</filter>
<filter id="filter5_i_11_2" x="94.9427" y="148.842" width="75.0573" height="22.6357" filterUnits="userSpaceOnUse" color-interpolation-filters="sRGB">
<feFlood flood-opacity="0" result="BackgroundImageFix"/>
<feBlend mode="normal" in="SourceGraphic" in2="BackgroundImageFix" result="shape"/>
<feColorMatrix in="SourceAlpha" type="matrix" values="0 0 0 0 0 0 0 0 0 0 0 0 0 0 0 0 0 0 127 0" result="hardAlpha"/>
<feOffset/>
<feGaussianBlur stdDeviation="8.15"/>
<feComposite in2="hardAlpha" operator="arithmetic" k2="-1" k3="1"/>
<feColorMatrix type="matrix" values="0 0 0 0 0.244189 0 0 0 0 0.0165834 0 0 0 0 0.0110768 0 0 0 1 0"/>
<feBlend mode="normal" in2="shape" result="effect1_innerShadow_11_2"/>
</filter>
<filter id="filter6_ii_11_2" x="120.448" y="83" width="52.3644" height="51.6802" filterUnits="userSpaceOnUse" color-interpolation-filters="sRGB">
<feFlood flood-opacity="0" result="BackgroundImageFix"/>
<feBlend mode="normal" in="SourceGraphic" in2="BackgroundImageFix" result="shape"/>
<feColorMatrix in="SourceAlpha" type="matrix" values="0 0 0 0 0 0 0 0 0 0 0 0 0 0 0 0 0 0 127 0" result="hardAlpha"/>
<feOffset dy="4"/>
<feComposite in2="hardAlpha" operator="arithmetic" k2="-1" k3="1"/>
<feColorMatrix type="matrix" values="0 0 0 0 1 0 0 0 0 1 0 0 0 0 1 0 0 0 0.44 0"/>
<feBlend mode="normal" in2="shape" result="effect1_innerShadow_11_2"/>
<feColorMatrix in="SourceAlpha" type="matrix" values="0 0 0 0 0 0 0 0 0 0 0 0 0 0 0 0 0 0 127 0" result="hardAlpha"/>
<feOffset/>
<feGaussianBlur stdDeviation="8.05"/>
<feComposite in2="hardAlpha" operator="arithmetic" k2="-1" k3="1"/>
<feColorMatrix type="matrix" values="0 0 0 0 0 0 0 0 0 0 0 0 0 0 0 0 0 0 1 0"/>
<feBlend mode="normal" in2="effect1_innerShadow_11_2" result="effect2_innerShadow_11_2"/>
</filter>
<filter id="filter7_ii_11_2" x="142" y="113.5" width="11" height="46.5801" filterUnits="userSpaceOnUse" color-interpolation-filters="sRGB">
<feFlood flood-opacity="0" result="BackgroundImageFix"/>
<feBlend mode="normal" in="SourceGraphic" in2="BackgroundImageFix" result="shape"/>
<feColorMatrix in="SourceAlpha" type="matrix" values="0 0 0 0 0 0 0 0 0 0 0 0 0 0 0 0 0 0 127 0" result="hardAlpha"/>
<feOffset dx="-2" dy="1"/>
<feComposite in2="hardAlpha" operator="arithmetic" k2="-1" k3="1"/>
<feColorMatrix type="matrix" values="0 0 0 0 1 0 0 0 0 1 0 0 0 0 1 0 0 0 0.25 0"/>
<feBlend mode="normal" in2="shape" result="effect1_innerShadow_11_2"/>
<feColorMatrix in="SourceAlpha" type="matrix" values="0 0 0 0 0 0 0 0 0 0 0 0 0 0 0 0 0 0 127 0" result="hardAlpha"/>
<feOffset/>
<feGaussianBlur stdDeviation="3.35"/>
<feComposite in2="hardAlpha" operator="arithmetic" k2="-1" k3="1"/>
<feColorMatrix type="matrix" values="0 0 0 0 0 0 0 0 0 0 0 0 0 0 0 0 0 0 1 0"/>
<feBlend mode="normal" in2="effect1_innerShadow_11_2" result="effect2_innerShadow_11_2"/>
</filter>
<clipPath id="clip0_11_2">
<rect width="269" height="251" fill="white"/>
</clipPath>
</defs>
</svg>
