<svg width="305" height="305" viewBox="0 0 305 305" fill="none" xmlns="http://www.w3.org/2000/svg">
<circle cx="152.5" cy="152.5" r="150.5" fill="url(#paint0_radial_31_53)" stroke="#393737" stroke-width="4"/>
<circle cx="152.5" cy="152.5" r="119.5" fill="#721C1C" stroke="#393737" stroke-width="4"/>
<g filter="url(#filter0_i_31_53)">
<path d="M181.53 145.929C180.842 143.371 179.982 140.898 179.336 138.339C178.39 134.715 178.691 129.555 176.239 126.571C175.077 125.164 174.087 123.97 173.227 122.307C172.452 120.772 171.678 119.194 170.387 118C170.344 119.748 172.582 124.78 171.549 126.144C170.99 126.912 169.441 126.4 168.752 126.23C167.247 125.888 165.784 125.718 164.235 125.675C162.557 125.633 160.535 126.528 158.9 126.23C157.523 125.974 155.673 124.098 154.512 123.287C152.446 121.838 150.381 119.45 148.144 118.512C149.091 120.772 150.854 122.904 152.36 124.822C153.694 126.485 153.35 126.997 152.274 128.788C151.5 130.11 150.941 131.474 150.467 132.924C150.252 133.649 150.08 135.013 149.521 135.61C148.918 136.207 147.37 136.25 146.466 136.378C141.217 137.359 135.968 138.382 131.107 140.727C126.116 143.158 120.867 147.635 119.533 153.135C119.232 154.415 119.318 155.779 118.974 157.058C118.888 157.357 118.802 157.655 118.716 157.954C115.36 160.001 112.004 162.729 112.004 166.908C111.789 174.413 120.265 179.786 126.89 180.724C129.945 181.193 135.022 181.321 137.517 178.975C139.539 177.099 136.097 176.289 134.678 176.161C131.838 175.692 128.998 176.033 126.159 175.692C123.792 175.351 121.555 174.541 119.447 173.219C117.554 172.068 115.188 170.319 115.446 167.718C115.575 165.757 116.866 163.966 118.242 162.346C118.415 165.203 119.275 168.059 121.125 170.319C122.932 172.537 127.148 172.494 129.773 172.537C130.977 172.537 133.989 172.878 134.462 171.385C134.764 170.447 133.688 169.552 133.43 168.827C134.462 168.614 135.71 169.722 136.743 169.936C138.593 170.362 140.615 170.831 142.551 171.002C145.132 171.258 148.058 170.746 150.553 171.13C149.435 173.986 160.492 176.374 158.126 171.13C160.191 171.556 162.385 171.343 164.45 171.513C165.181 171.556 170.947 171.556 171.119 170.916C170.818 171.812 169.14 171.982 169.656 173.347C170.129 174.669 172.28 174.669 173.399 174.583C175.292 174.498 177.185 174.541 179.121 174.413C180.885 174.328 182.692 174.37 183.553 172.75C184.499 171.002 184.714 168.23 184.886 166.311C185.532 159.574 183.294 152.411 181.53 145.929ZM157.781 136.847C152.661 135.44 155.243 127.125 159.976 128.66C161.309 129.086 162.041 130.451 162.342 131.73C163.073 134.843 161.309 137.785 157.781 136.847ZM170.086 137.401C164.966 135.994 167.548 127.679 172.28 129.172C173.614 129.598 174.345 130.963 174.647 132.242C175.378 135.397 173.571 138.339 170.086 137.401Z" fill="#511E1D"/>
</g>
<defs>
<filter id="filter0_i_31_53" x="112" y="118" width="73" height="63" filterUnits="userSpaceOnUse" color-interpolation-filters="sRGB">
<feFlood flood-opacity="0" result="BackgroundImageFix"/>
<feBlend mode="normal" in="SourceGraphic" in2="BackgroundImageFix" result="shape"/>
<feColorMatrix in="SourceAlpha" type="matrix" values="0 0 0 0 0 0 0 0 0 0 0 0 0 0 0 0 0 0 127 0" result="hardAlpha"/>
<feOffset/>
<feGaussianBlur stdDeviation="1.45"/>
<feComposite in2="hardAlpha" operator="arithmetic" k2="-1" k3="1"/>
<feColorMatrix type="matrix" values="0 0 0 0 0 0 0 0 0 0 0 0 0 0 0 0 0 0 0.25 0"/>
<feBlend mode="normal" in2="shape" result="effect1_innerShadow_31_53"/>
</filter>
<radialGradient id="paint0_radial_31_53" cx="0" cy="0" r="1" gradientUnits="userSpaceOnUse" gradientTransform="translate(152.5 152.5) rotate(90) scale(152.5)">
<stop offset="0.81" stop-color="#B26204"/>
<stop offset="0.91" stop-color="#F88600"/>
<stop offset="0.976072" stop-color="#CC6E00"/>
</radialGradient>
</defs>
</svg>
