<svg width="843" height="851" viewBox="0 0 843 851" fill="none" xmlns="http://www.w3.org/2000/svg">
<path d="M841 425.5C841 659.41 653.166 849 421.5 849C189.834 849 2 659.41 2 425.5C2 191.59 189.834 2 421.5 2C653.166 2 841 191.59 841 425.5Z" fill="url(#paint0_radial_31_54)" stroke="#393737" stroke-width="4"/>
<path d="M808 425.5C808 641.187 634.939 816 421.5 816C208.061 816 35 641.187 35 425.5C35 209.813 208.061 35 421.5 35C634.939 35 808 209.813 808 425.5Z" fill="#721C1C" stroke="#393737" stroke-width="4"/>
<g filter="url(#filter0_i_31_54)">
<path d="M291.344 562.924L287.378 570.4V595.558H274.507V513.712H287.378V549.337L304.216 513.712H317.088L299.145 550.182L317.088 595.558H303.891L291.344 562.924Z" fill="#511E1D"/>
<path d="M322.938 513.712H335.81V595.558H322.938V513.712Z" fill="#511E1D"/>
<path d="M341.466 513.712H381.252V525.414H367.795V595.558H354.923V525.414H341.466V513.712Z" fill="#511E1D"/>
<path d="M383.137 513.712H422.922V525.414H409.465V595.558H396.594V525.414H383.137V513.712Z" fill="#511E1D"/>
<path d="M441.385 548.232H459.067V559.933H441.385V583.922H463.618V595.623H428.513V513.712H463.618V525.414H441.385V548.232Z" fill="#511E1D"/>
<path d="M483.121 536.27V595.558H471.549V513.712H487.736L500.933 562.664V513.712H512.375V595.558H499.178L483.121 536.27Z" fill="#511E1D"/>
<path d="M538.898 512.802C551.445 512.802 557.881 520.278 557.881 533.345V535.945H545.724V532.565C545.724 526.714 543.384 524.503 539.288 524.503C535.193 524.503 532.853 526.714 532.853 532.565C532.853 549.402 558.011 552.522 558.011 575.926C558.011 588.992 551.445 596.469 538.833 596.469C526.222 596.469 519.656 588.992 519.656 575.926V570.92H531.812V576.771C531.812 582.622 534.413 584.702 538.508 584.702C542.604 584.702 545.204 582.622 545.204 576.771C545.204 559.933 520.046 556.813 520.046 533.41C519.981 520.278 526.417 512.802 538.898 512.802Z" fill="#511E1D"/>
<g filter="url(#filter1_i_31_54)">
<path d="M294.659 405.666C294.204 403.585 294.659 401.375 295.57 399.49C296.025 398.515 296.61 397.604 297.39 396.889C298.04 396.239 298.95 395.849 299.665 395.329C297.715 397.214 297.39 398.645 296.61 401.115C296.155 402.61 294.659 404.04 294.659 405.666Z" fill="#511E1D"/>
<path d="M229.065 501.554H263.91V489.983H241.482V465.929H258.904V454.358H241.482V431.994H263.91V420.423H229.065V501.554Z" fill="#511E1D"/>
<path d="M314.292 420.423H302.46L292.579 450.327L282.893 420.423H269.696L283.023 459.818L268.721 501.554H280.682L291.279 469.44L301.745 501.554H315.202L300.9 459.818L314.292 420.423Z" fill="#511E1D"/>
<path d="M340.426 420.423H321.963V501.554H334.38V470.935H340.426C353.233 470.935 359.278 463.784 359.278 450.782V440.251C359.278 427.249 353.168 420.423 340.426 420.423ZM346.797 451.627C346.797 457.413 344.456 459.363 340.426 459.363H334.38V432.059H340.426C344.521 432.059 346.797 433.685 346.797 439.471V451.627Z" fill="#511E1D"/>
<path d="M378.326 420.423H365.064V501.554H399.064V489.983H378.326V420.423Z" fill="#511E1D"/>
<path d="M423.117 419.252C410.57 419.252 404.07 426.663 404.07 439.665V481.856C404.07 494.858 410.57 502.269 423.117 502.269C435.664 502.269 442.165 494.858 442.165 481.856V439.665C442.165 426.663 435.664 419.252 423.117 419.252ZM429.748 482.701C429.748 488.487 427.148 490.697 423.117 490.697C419.022 490.697 416.486 488.487 416.486 482.701V438.82C416.486 433.034 419.087 430.824 423.117 430.824C427.213 430.824 429.748 433.034 429.748 438.82V482.701Z" fill="#511E1D"/>
<path d="M471.029 420.423H450.486V501.554H471.029C483.836 501.554 490.337 494.273 490.337 481.271V440.251C490.272 427.249 483.771 420.423 471.029 420.423ZM477.01 481.857C477.01 487.642 474.8 489.918 470.769 489.918H463.748V431.994H470.769C474.865 431.994 477.01 433.88 477.01 439.666V481.857Z" fill="#511E1D"/>
<path d="M511.01 420.423H498.593V501.554H511.01V420.423Z" fill="#511E1D"/>
<path d="M549.17 468.79L536.168 420.423H520.176V501.554H531.748V442.526L547.545 501.554H560.807V420.423H549.17V468.79Z" fill="#511E1D"/>
<path d="M607.223 447.726V439.665C607.223 426.663 600.722 419.252 588.176 419.252C575.629 419.252 569.128 426.663 569.128 439.665V481.856C569.128 494.858 575.629 502.269 588.176 502.269C600.722 502.269 607.223 494.858 607.223 481.856V455.982H588.956V467.554H594.742V482.636C594.742 488.422 592.141 490.502 588.111 490.502C584.015 490.502 581.48 488.422 581.48 482.636V438.82C581.48 433.034 584.08 430.824 588.111 430.824C592.206 430.824 594.742 433.034 594.742 438.82V447.726H607.223Z" fill="#511E1D"/>
<path d="M612.684 453.512C612.424 454.812 611.124 455.332 610.734 456.568C610.799 455.592 611.449 454.747 611.709 453.837C611.969 452.862 612.034 451.692 611.774 450.717C612.424 451.367 612.879 452.602 612.684 453.512Z" fill="#511E1D"/>
<path d="M519.721 404.69C519.461 404.95 519.266 407.681 519.071 408.266C518.746 409.371 518.226 410.346 517.771 411.451C517.056 413.337 516.861 415.287 516.341 417.237C516.211 415.027 516.406 411.386 517.316 409.371C517.901 408.071 518.746 405.666 519.721 404.69Z" fill="#511E1D"/>
<path d="M473.629 414.572C472.979 411.062 476.1 407.681 478.245 405.341C477.725 406.966 477.66 408.916 476.75 410.412C475.71 411.972 473.564 412.297 473.629 414.572Z" fill="#511E1D"/>
<path d="M391.653 477.63C391.003 479.126 388.922 481.076 389.378 482.896C388.988 481.011 389.313 478.93 390.028 477.11C390.288 476.395 390.678 475.68 391.068 475.03C391.458 474.38 391.913 473.795 392.108 473.015C392.368 473.21 392.303 473.73 392.173 473.99C392.108 474.315 392.043 474.575 392.043 474.965C392.043 475.875 392.043 476.85 391.653 477.63Z" fill="#511E1D"/>
<path d="M385.217 477.241C385.347 476.656 386.452 476.396 386.582 475.356C386.647 474.511 386.127 473.47 385.607 472.82C385.542 474.316 385.607 475.811 385.217 477.241Z" fill="#511E1D"/>
<path d="M358.368 404.82C358.628 404.885 358.173 405.47 358.043 405.665C357.783 406.316 357.783 406.966 357.523 407.616C357.198 408.526 355.768 409.176 356.093 410.281C356.093 409.696 356.158 409.241 356.353 408.656C356.548 408.071 356.548 407.421 356.743 406.836C357.003 405.99 357.523 405.145 358.433 404.885" fill="#511E1D"/>
<path d="M592.791 403.455C592.401 404.366 592.466 405.471 592.271 406.446C592.141 407.031 591.686 407.486 591.491 408.071C591.231 408.656 591.036 409.241 591.036 409.891C590.841 409.176 590.841 408.266 591.036 407.551C591.166 406.966 591.231 406.316 591.296 405.731C591.491 404.626 592.206 403.846 592.986 403.065" fill="#511E1D"/>
<path d="M600.072 414.572C600.462 415.027 600.137 415.612 600.007 416.067C599.812 416.782 599.942 417.497 600.137 418.147C599.942 417.367 600.462 416.912 600.787 416.327C601.047 415.872 601.112 414.832 600.982 414.312C600.722 413.532 600.007 414.832 599.877 415.222C599.487 416.262 599.877 417.172 599.812 418.212C599.812 417.887 599.877 416.977 600.267 416.717C600.332 417.042 600.332 417.367 600.462 417.692C600.592 417.302 600.462 416.847 600.592 416.457C600.722 416.002 601.112 415.547 601.372 415.157C601.763 414.572 601.828 413.987 601.893 413.337C601.958 412.817 602.088 412.296 602.023 411.776C602.023 412.166 601.893 412.491 601.698 412.817C601.438 413.142 600.982 413.467 600.787 413.857C600.722 414.117 600.852 414.182 600.852 414.442C600.852 414.767 600.592 414.962 600.592 415.287C600.397 414.962 600.267 414.767 600.072 414.572C600.072 414.507 600.137 414.572 600.137 414.572Z" fill="#511E1D"/>
<path d="M263.455 497.199C262.285 497.329 262.154 494.663 261.114 493.688C259.944 492.518 258.319 492.583 256.824 492.388C259.619 490.763 259.749 486.797 261.114 484.132C261.114 485.432 260.529 486.797 261.114 487.967C262.74 486.277 264.56 481.271 264.625 478.996C264.625 479.971 263.585 484.067 264.755 484.327C266.185 484.652 267.095 480.036 267.42 479.191C267.68 482.507 266.965 486.017 266.705 489.073C266.445 490.698 266.25 492.128 265.535 493.558C265.535 494.013 264.365 496.159 264.82 495.443" fill="#511E1D"/>
<path d="M593.766 489.852C592.531 492.062 591.101 490.827 589.086 490.957C588.111 491.022 587.135 491.282 586.095 491.217C584.86 491.087 583.43 490.632 582.65 489.592C581.87 488.617 581.415 487.187 581.22 486.016C581.025 484.586 581.74 483.871 582.13 482.636C582.455 481.596 582.975 480.686 583.365 479.516C583.235 480.361 581.805 484.261 583.365 483.871C584.405 483.676 584.73 480.881 584.925 480.036C585.25 479.125 585.575 477.63 586.68 477.24C585.77 479.516 584.795 481.986 584.73 484.456C584.73 485.366 585.055 486.601 586.095 485.496C586.745 484.781 586.94 483.871 587.525 483.091C587.33 483.481 586.81 484.651 587.2 485.171C587.851 485.886 588.436 484.456 588.566 483.936C588.956 482.376 588.566 479.906 587.851 478.475C588.371 480.036 589.086 481.401 589.281 483.026C589.476 484.261 588.761 485.301 588.891 486.471C590.061 486.471 590.061 484.001 590.126 483.156C590.321 481.596 590.776 480.231 591.296 478.735C591.101 479.385 590.906 480.361 591.101 480.881C592.336 480.036 591.946 476.655 591.946 475.42C591.816 477.045 592.596 478.93 592.856 480.686C592.986 481.401 593.181 482.246 592.986 482.961C592.856 483.481 592.466 484.001 592.466 484.586C593.311 483.676 593.311 481.921 594.221 481.141C593.831 483.091 594.026 485.106 594.091 487.057C594.156 487.967 594.286 488.942 593.766 489.852Z" fill="#511E1D"/>
<path d="M608.068 487.187C608.068 487.122 608.068 487.122 608.068 487.187C608.588 486.017 609.043 484.782 609.303 483.547C609.564 482.507 609.954 481.596 610.279 480.556C610.084 480.881 609.173 482.312 608.783 482.377C608.328 482.442 608.653 481.466 608.653 481.076C608.653 480.036 608.458 478.996 608.848 477.956C609.303 476.786 610.474 476.071 610.799 474.77C610.994 473.795 610.604 472.885 610.734 471.91C610.929 472.43 610.799 473.99 609.889 473.73C608.653 473.405 610.214 470.675 610.474 470.09C611.189 468.4 611.839 466.319 611.514 464.499C611.254 463.329 610.474 462.159 610.409 460.988C610.864 462.484 611.189 465.214 610.279 466.644C609.889 467.229 609.563 467.294 609.563 466.514C609.563 465.994 609.824 465.279 610.084 464.824C609.173 465.344 608.978 466.384 608.783 467.359C608.653 468.009 608.653 468.79 608.133 469.31C607.678 469.765 607.158 470.09 606.703 470.545C606.443 469.635 606.443 468.92 606.443 468.009C606.443 467.749 606.703 466.124 606.703 467.099C606.703 466.319 606.768 465.604 607.028 464.889C607.288 464.239 607.223 463.719 607.353 463.004C607.483 462.289 607.938 461.639 608.133 460.923C608.328 460.208 608.263 459.428 608.263 458.648C608.263 457.868 608.588 456.893 608.523 456.178C608.263 456.698 607.873 458.453 607.288 458.453C607.093 457.998 607.288 457.218 607.288 456.763C607.288 456.178 607.288 455.723 607.418 455.203C607.808 453.447 608.068 451.627 608.913 450.002C608.198 450.522 607.678 451.627 607.418 452.472C607.223 453.122 607.158 454.358 606.443 454.748C606.443 454.163 606.638 453.512 606.768 452.927C606.898 452.342 607.288 451.562 607.158 450.977C606.573 452.082 606.638 453.642 605.728 454.553C605.078 455.268 604.753 454.423 604.883 453.772C605.013 453.057 605.273 452.407 605.468 451.757C605.013 452.472 604.493 453.187 604.168 454.033C603.973 454.488 603.973 455.008 603.843 455.463C603.648 455.983 603.388 456.048 603.128 456.373C602.543 457.088 602.543 458.388 602.608 459.363C602.738 461.509 603.518 463.589 603.778 465.734C604.233 469.765 603.843 473.99 604.103 478.086C604.298 481.076 605.078 483.937 605.208 486.862C605.273 487.967 605.273 489.072 604.948 490.113C604.623 491.153 604.558 492.323 604.233 493.363C605.598 491.218 607.093 489.398 608.068 487.187Z" fill="#511E1D"/>
<path d="M603.453 423.153C603.518 423.868 603.713 424.583 603.648 425.298C600.072 423.543 596.692 423.088 592.726 423.218C588.371 423.348 583.3 423.608 579.074 425.038C576.929 425.753 575.239 427.248 573.289 428.028C574.654 425.688 575.824 423.023 577.384 420.812C578.619 419.057 580.375 417.822 581.22 415.677C580.765 416.847 580.05 418.927 580.05 420.097C580.31 419.837 580.765 419.382 581.22 419.187C581.675 418.732 581.935 418.277 582.39 417.757C582.845 417.497 583.3 418.017 583.82 417.497C585.9 416.067 586.615 412.361 588.046 410.281C587.591 412.621 587.136 414.962 586.615 417.302C586.16 420.357 586.16 419.382 588.696 418.472C588.696 421.528 591.751 417.562 591.946 416.847C593.116 414.507 593.831 412.166 595.457 410.346C595.457 411.776 594.872 413.206 594.482 414.572C594.287 415.157 593.506 417.432 595.002 416.977C596.237 416.587 596.237 414.832 596.432 413.856C596.692 412.361 598.187 411.451 598.252 409.956C598.317 409.046 598.317 408.071 598.382 407.161C598.382 406.575 598.447 405.925 598.252 405.405C598.187 405.925 598.512 406.575 598.707 407.096C598.902 407.746 599.227 408.461 599.292 409.176C599.357 409.826 599.357 410.671 599.162 411.256C598.967 411.971 598.577 412.621 598.252 413.336C597.797 414.442 597.602 415.742 597.667 416.912C597.732 418.017 598.057 420.487 599.357 420.812C599.942 421.007 600.397 420.552 600.722 420.097C601.178 419.382 601.503 418.602 602.088 417.952C601.828 419.122 601.178 420.487 601.633 421.463C603.258 420.292 604.688 417.757 605.858 416.067C605.468 418.082 603.908 419.837 603.583 421.853C603.128 424.518 603.583 426.468 602.348 429.134" fill="#511E1D"/>
<path d="M536.428 493.882C536.623 492.192 536.233 490.307 536.428 488.617C536.623 487.381 537.078 486.081 537.468 484.846C535.973 486.536 535.778 488.812 533.893 490.307C534.283 488.227 535.388 486.536 535.973 484.651C536.363 482.766 536.623 480.881 537.208 479.19C536.558 480.686 535.973 483.806 534.283 485.041C534.088 483.806 535.128 481.661 535.518 480.426C535.713 479.19 536.168 477.695 536.363 476.46C536.363 478.995 534.673 481.466 533.243 483.351C531.097 486.081 530.772 486.666 530.317 490.177C529.927 493.622 528.822 497.328 530.122 500.643C529.992 500.318 533.048 498.563 533.438 498.238C534.868 497.198 536.038 495.638 536.428 493.882Z" fill="#511E1D"/>
<path d="M541.499 444.866C539.354 443.371 539.549 437.975 538.574 435.57C537.338 432.514 540.069 429.394 540.849 426.403C540.849 426.598 541.239 427.053 541.239 427.248C542.734 425.168 542.474 421.983 543.774 419.902C544.619 422.633 543.384 426.208 542.734 428.679C542.084 431.149 542.344 434.139 541.499 436.415C541.694 435.765 542.344 434.919 542.994 434.529C542.994 436.22 541.954 438.105 542.149 439.795C542.994 439.145 543.839 437.715 544.684 436.87C544.684 439.405 542.604 441.68 542.409 444.216C542.604 444.216 542.604 444.021 542.799 444.021" fill="#511E1D"/>
<path d="M476.88 424.128C473.889 424.193 471.029 423.283 468.104 423.088C464.658 422.828 461.733 424.063 458.482 424.323C455.817 424.518 456.857 422.633 457.962 421.267C459.262 419.577 460.238 418.342 461.213 416.327C461.213 416.717 461.278 419.577 461.018 419.772C462.708 418.732 464.138 415.807 465.438 414.311C467.519 411.776 469.404 408.461 470.444 405.535C470.054 406.77 463.943 422.503 470.444 418.082C470.444 420.162 471.094 419.577 472.524 418.732C474.995 417.302 474.02 419.577 475.905 418.992C477.79 418.407 477.66 414.506 479.155 413.336C478.895 414.636 476.685 419.577 479.35 418.212C480.65 417.562 481.821 415.677 482.666 414.506C481.431 415.937 481.106 418.277 481.106 420.097C481.106 421.592 481.301 424.193 479.155 424.193C479.22 424.063 479.22 423.933 479.22 423.803" fill="#511E1D"/>
<path d="M512.765 467.684C512.31 469.635 512.505 473.86 511.01 475.29C509.06 477.111 507.955 475.03 507.759 473.405C506.979 466.904 507.759 460.208 507.044 453.642C506.329 447.467 505.874 441.226 505.809 434.985C505.809 431.084 503.859 425.363 506.134 421.788C506.979 420.488 508.02 419.643 508.67 418.082C509.32 416.587 509.71 415.027 510.425 413.597C509.97 415.027 509.515 417.367 509.71 418.863C511.205 416.977 511.4 415.092 512.18 413.012C514 416.522 512.765 420.293 513.35 423.998C513.545 425.428 513.87 426.469 513.74 427.964C513.48 430.174 514 431.604 514.195 433.75C514.455 436.74 513.025 439.86 512.505 442.786C512.115 445.061 511.66 447.597 511.01 449.677C511.4 447.402 512.505 444.671 513.545 442.526C514.39 440.641 515.04 439.145 515.236 437.065C515.431 436.025 515.236 433.49 516.276 432.905C517.316 434.985 516.276 438.17 515.886 440.251C515.496 443.176 514.65 445.906 513.805 448.832C513.155 451.367 512.96 454.683 511.53 457.218C511.53 455.723 512.18 454.293 512.57 453.057C512.765 455.138 511.725 457.478 511.53 459.558C512.765 459.168 513.415 457.868 514.065 457.023C514.455 459.298 512.57 461.639 512.375 463.914C515.105 462.419 516.146 455.528 516.796 452.797C514.845 457.478 514 462.874 512.765 467.684Z" fill="#511E1D"/>
<path d="M388.207 487.642C389.573 488.682 392.953 489.657 393.798 489.592C392.303 489.722 391.263 490.438 389.963 490.958C388.597 491.478 387.102 491.348 385.672 491.543C382.226 491.933 378.651 491.608 375.271 491.478C376.571 489.267 379.496 488.097 380.406 485.757C380.276 486.342 380.146 488.422 379.821 488.812C380.601 487.902 381.836 487.122 382.422 486.212C382.942 485.367 382.812 484.067 382.877 483.092C383.072 481.336 383.787 480.101 384.762 478.671C384.177 479.971 383.462 481.466 383.397 482.962C383.397 483.677 383.722 484.262 383.657 484.912C383.592 486.212 382.942 487.512 382.877 488.812C384.372 487.967 385.412 486.537 386.647 485.692C386.127 486.017 385.997 487.382 386.062 487.967C387.947 486.472 388.207 489.787 389.898 488.292C391.198 487.122 391.523 484.327 391.913 482.701C391.978 484.457 391.653 486.992 391.133 488.942C392.433 488.292 393.018 485.627 393.473 484.392C394.123 482.636 394.968 480.621 394.903 478.736C394.903 481.401 394.643 483.937 394.383 486.602C394.253 487.837 393.668 489.917 394.318 491.088C393.603 491.413 392.498 491.673 391.718 491.608C391.653 491.413 391.783 491.283 391.848 491.088" fill="#511E1D"/>
<path d="M427.603 487.837C427.278 490.307 426.888 493.168 424.092 493.363C421.362 493.623 418.437 491.218 417.331 488.877C415.901 485.887 416.681 481.726 417.331 478.606C417.787 476.59 418.502 472.365 420.062 470.87C419.412 472.95 418.177 476.916 418.827 479.061C421.947 479.256 423.442 467.749 423.832 465.214C423.442 469.179 423.182 473.405 422.792 477.566C422.402 480.296 420.907 483.871 421.102 486.342C421.947 485.497 422.597 484.067 423.182 482.961C423.572 484.197 423.182 485.887 423.182 487.122C425.913 484.847 426.108 480.621 427.798 477.696C428.253 480.881 428.058 484.457 427.603 487.837Z" fill="#511E1D"/>
<path d="M272.426 406.12C271.386 407.616 270.281 409.176 269.241 410.671C268.006 412.361 266.38 413.987 265.73 416.002C265.275 417.432 265.6 418.927 265.015 420.358C263.78 423.608 261.375 426.858 257.994 428.029C254.159 429.264 249.673 427.378 245.967 426.663C240.312 425.493 234.656 425.753 229 424.908C232.38 421.008 238.426 420.618 241.872 416.587C245.187 412.751 245.447 406.706 249.153 403C249.153 407.421 244.732 410.736 244.732 415.157C244.732 415.027 248.503 413.141 248.893 412.881C250.128 412.101 251.233 411.256 252.208 410.151C254.224 407.941 255.654 405.34 257.279 402.87C259.164 400.075 261.44 397.539 263.91 395.199C265.34 393.834 267.16 392.144 268.916 391.233C264.56 396.044 259.359 400.335 258.319 407.161C258.059 408.721 257.539 411.321 259.944 410.151C261.31 409.501 262.48 408.071 262.285 406.511C261.895 407.356 263 409.111 263.065 410.151C263.195 411.906 261.7 413.011 261.375 414.572C260.789 416.977 263.26 415.287 264.105 414.572C267.16 411.971 269.176 408.396 272.426 406.12Z" fill="#511E1D"/>
<path d="M283.608 423.933C286.273 422.503 287.573 418.537 288.808 415.872C290.499 412.946 292.969 411.126 295.049 408.656C293.359 411.126 289.263 416.717 290.304 419.837C292.774 417.952 294.854 414.442 296.284 411.971C298.365 408.656 299.6 404.3 302.265 401.635C301.03 402.87 300.575 405.34 299.99 407.031C299.145 409.696 298.56 412.231 298.105 415.092C297.455 419.447 295.439 421.333 293.359 424.583C295.439 424.193 297.065 420.617 297.52 418.797C296.479 420.422 296.479 422.958 295.634 424.778C294.789 427.053 293.359 429.329 292.124 431.409C290.694 433.879 289.458 437.845 287.118 439.47C286.273 438.43 286.078 435.96 285.688 434.529C285.038 432.449 283.803 429.979 283.608 427.898" fill="#511E1D"/>
<path d="M256.434 440.51C256.369 440.64 256.954 442.005 256.954 442.33C257.019 443.305 256.759 444.41 256.499 445.32C255.979 447.011 254.614 448.246 254.029 449.871C253.443 451.431 254.484 453.382 253.638 454.747C252.533 456.762 247.203 456.502 245.382 456.112C245.837 454.552 247.593 453.642 248.373 452.211C248.828 451.431 250.648 448.896 250.778 448.181C250.583 449.416 249.543 450.261 249.543 451.691C250.778 451.041 252.208 449.026 253.053 447.726C254.744 445.45 255.394 443.175 256.434 440.51Z" fill="#511E1D"/>
<path d="M351.802 429.914C349.787 427.054 347.837 424.193 344.066 423.608C342.701 423.413 334.705 422.113 334.055 423.023C336.265 420.098 342.896 417.953 342.896 413.532C342.701 415.157 341.856 416.847 341.661 418.473C342.701 418.018 344.131 417.172 344.781 416.197C345.171 415.612 345.367 414.962 345.757 414.377C346.212 413.662 346.862 413.077 347.447 412.557C348.357 411.777 349.332 411.127 350.242 410.477C349.592 410.932 348.812 411.582 348.487 412.297C348.292 412.687 347.707 413.857 348.422 413.987C349.202 414.117 349.852 412.947 350.307 412.492C350.892 411.907 351.412 411.062 351.477 410.217C351.477 410.672 351.672 411.192 351.607 411.712C351.542 412.167 351.542 412.752 351.347 413.142C350.697 414.377 349.462 415.092 349.007 416.457C348.812 417.172 348.747 417.823 349.202 418.473C349.397 418.798 349.917 419.123 350.307 419.123C350.697 419.123 350.827 418.798 351.022 418.538C351.607 417.823 352.192 417.172 352.713 416.392C353.558 415.222 354.208 413.727 355.248 412.687C354.858 414.117 351.347 420.553 355.053 418.668C357.458 417.433 357.718 412.297 358.628 410.021C357.783 414.312 357.913 419.253 357.718 423.608C357.653 424.779 356.743 425.624 358.563 425.494C359.799 425.429 361.294 423.218 361.619 422.243C360.774 423.673 359.213 426.794 359.409 428.614C362.139 426.859 364.089 423.023 363.699 419.773C362.724 421.528 362.919 424.909 362.659 427.054C362.269 429.784 361.944 432.645 361.229 435.31C360.384 438.3 359.669 444.216 357.003 446.037C356.223 443.761 356.288 441.031 355.703 438.626C354.988 435.44 353.688 432.645 351.802 429.914Z" fill="#511E1D"/>
</g>
<g filter="url(#filter2_i_31_54)">
<path d="M492.348 313.94C490.646 307.728 488.528 301.724 486.931 295.511C484.591 286.709 485.267 274.162 479.273 266.932C476.434 263.523 474.015 260.631 471.905 256.597C470.006 252.873 468.106 249.046 464.955 246.157C464.869 250.408 470.362 262.617 467.867 265.945C466.515 267.817 462.744 266.59 461.069 266.183C457.404 265.37 453.845 264.971 450.079 264.884C445.999 264.798 441.093 266.997 437.115 266.289C433.765 265.682 429.247 261.14 426.414 259.183C421.377 255.681 416.33 249.897 410.881 247.641C413.207 253.125 417.518 258.29 421.2 262.938C424.461 266.967 423.629 268.215 421.033 272.581C419.165 275.803 417.82 279.126 416.685 282.656C416.17 284.421 415.766 287.74 414.412 289.197C412.954 290.655 409.189 290.776 406.994 291.096C394.243 293.537 381.493 296.082 369.698 301.836C357.59 307.799 344.877 318.741 341.694 332.128C340.975 335.242 341.199 338.558 340.376 341.672C340.17 342.399 339.964 343.125 339.758 343.852C331.621 348.864 323.491 355.535 323.537 365.695C323.094 383.943 343.759 396.914 359.878 399.123C367.31 400.231 379.654 400.487 385.696 394.758C390.592 390.175 382.215 388.242 378.762 387.947C371.853 386.837 364.953 387.697 358.045 386.898C352.288 386.094 346.84 384.149 341.701 380.958C337.086 378.179 331.314 373.954 331.913 367.627C332.206 362.857 335.325 358.489 338.655 354.535C339.104 361.479 341.227 368.415 345.749 373.89C350.166 379.261 360.417 379.112 366.798 379.188C369.727 379.175 377.053 379.972 378.187 376.338C378.909 374.054 376.284 371.889 375.649 370.129C378.157 369.6 381.203 372.281 383.715 372.789C388.218 373.805 393.139 374.924 397.848 375.318C404.127 375.912 411.234 374.637 417.306 375.543C414.617 382.501 441.525 388.187 435.716 375.461C440.741 376.476 446.073 375.934 451.096 376.326C452.875 376.422 466.892 376.36 467.303 374.803C466.58 376.983 462.503 377.416 463.773 380.728C464.938 383.936 470.168 383.913 472.886 383.694C477.488 383.466 482.091 383.549 486.797 383.217C491.085 382.991 495.478 383.075 497.553 379.127C499.835 374.866 500.328 368.125 500.726 363.458C502.223 347.071 496.706 329.679 492.348 313.94ZM434.509 292.115C422.047 288.749 428.233 268.505 439.756 272.187C443.003 273.209 444.796 276.518 445.542 279.625C447.354 287.185 443.097 294.357 434.509 292.115ZM464.432 293.33C451.969 289.964 458.155 269.721 469.678 273.298C472.925 274.32 474.718 277.63 475.464 280.737C477.276 288.4 472.914 295.573 464.432 293.33Z" fill="#511E1D"/>
</g>
</g>
<defs>
<filter id="filter0_i_31_54" x="229" y="246.157" width="383.73" height="350.312" filterUnits="userSpaceOnUse" color-interpolation-filters="sRGB">
<feFlood flood-opacity="0" result="BackgroundImageFix"/>
<feBlend mode="normal" in="SourceGraphic" in2="BackgroundImageFix" result="shape"/>
<feColorMatrix in="SourceAlpha" type="matrix" values="0 0 0 0 0 0 0 0 0 0 0 0 0 0 0 0 0 0 127 0" result="hardAlpha"/>
<feOffset/>
<feGaussianBlur stdDeviation="2.65"/>
<feComposite in2="hardAlpha" operator="arithmetic" k2="-1" k3="1"/>
<feColorMatrix type="matrix" values="0 0 0 0 0 0 0 0 0 0 0 0 0 0 0 0 0 0 0.25 0"/>
<feBlend mode="normal" in2="shape" result="effect1_innerShadow_31_54"/>
</filter>
<filter id="filter1_i_31_54" x="229" y="391.233" width="383.73" height="111.035" filterUnits="userSpaceOnUse" color-interpolation-filters="sRGB">
<feFlood flood-opacity="0" result="BackgroundImageFix"/>
<feBlend mode="normal" in="SourceGraphic" in2="BackgroundImageFix" result="shape"/>
<feColorMatrix in="SourceAlpha" type="matrix" values="0 0 0 0 0 0 0 0 0 0 0 0 0 0 0 0 0 0 127 0" result="hardAlpha"/>
<feOffset/>
<feGaussianBlur stdDeviation="2.65"/>
<feComposite in2="hardAlpha" operator="arithmetic" k2="-1" k3="1"/>
<feColorMatrix type="matrix" values="0 0 0 0 0 0 0 0 0 0 0 0 0 0 0 0 0 0 0.25 0"/>
<feBlend mode="normal" in2="shape" result="effect1_innerShadow_31_54"/>
</filter>
<filter id="filter2_i_31_54" x="323.53" y="246.157" width="177.447" height="153.6" filterUnits="userSpaceOnUse" color-interpolation-filters="sRGB">
<feFlood flood-opacity="0" result="BackgroundImageFix"/>
<feBlend mode="normal" in="SourceGraphic" in2="BackgroundImageFix" result="shape"/>
<feColorMatrix in="SourceAlpha" type="matrix" values="0 0 0 0 0 0 0 0 0 0 0 0 0 0 0 0 0 0 127 0" result="hardAlpha"/>
<feOffset/>
<feGaussianBlur stdDeviation="2.65"/>
<feComposite in2="hardAlpha" operator="arithmetic" k2="-1" k3="1"/>
<feColorMatrix type="matrix" values="0 0 0 0 0 0 0 0 0 0 0 0 0 0 0 0 0 0 0.25 0"/>
<feBlend mode="normal" in2="shape" result="effect1_innerShadow_31_54"/>
</filter>
<radialGradient id="paint0_radial_31_54" cx="0" cy="0" r="1" gradientUnits="userSpaceOnUse" gradientTransform="translate(421.5 425.5) rotate(90) scale(425.5 421.5)">
<stop offset="0.835" stop-color="#B26204"/>
<stop offset="0.92" stop-color="#F88600"/>
<stop offset="0.976072" stop-color="#CC6E00"/>
</radialGradient>
</defs>
</svg>
