<svg width="400" height="558" viewBox="0 0 400 558" fill="none" xmlns="http://www.w3.org/2000/svg">
<g clip-path="url(#clip0_91_2)">
<rect width="400" height="558" rx="26" fill="#B0141F"/>
<rect width="400" height="558" rx="26" fill="url(#paint0_radial_91_2)" fill-opacity="0.4"/>
<path d="M101.604 283.624C100.87 283.716 100.789 281.84 100.137 281.154C99.4029 280.33 98.3838 280.376 97.4463 280.239C99.1991 279.095 99.2806 276.304 100.137 274.428C100.137 275.343 99.7697 276.304 100.137 277.127C101.156 275.938 102.297 272.415 102.338 270.813C102.338 271.5 101.686 274.382 102.419 274.565C103.316 274.794 103.887 271.546 104.091 270.951C104.254 273.284 103.805 275.755 103.642 277.905C103.479 279.049 103.357 280.056 102.908 281.062C102.908 281.382 102.175 282.892 102.46 282.389" fill="url(#paint1_linear_91_2)"/>
<path d="M308.716 278.455C307.942 280.011 307.045 279.141 305.782 279.233C305.17 279.279 304.559 279.462 303.906 279.416C303.132 279.324 302.235 279.004 301.746 278.272C301.257 277.586 300.972 276.579 300.849 275.756C300.727 274.749 301.175 274.246 301.42 273.376C301.624 272.644 301.95 272.004 302.194 271.18C302.113 271.775 301.216 274.52 302.194 274.246C302.847 274.109 303.05 272.141 303.173 271.546C303.377 270.906 303.58 269.853 304.273 269.579C303.703 271.18 303.091 272.919 303.051 274.658C303.051 275.298 303.254 276.167 303.906 275.39C304.314 274.886 304.436 274.246 304.803 273.697C304.681 273.971 304.355 274.795 304.599 275.161C305.007 275.664 305.374 274.658 305.455 274.292C305.7 273.193 305.455 271.455 305.007 270.448C305.333 271.546 305.782 272.507 305.904 273.651C306.026 274.52 305.578 275.252 305.659 276.076C306.393 276.076 306.393 274.337 306.434 273.743C306.556 272.644 306.841 271.684 307.167 270.631C307.045 271.089 306.923 271.775 307.045 272.141C307.82 271.546 307.575 269.167 307.575 268.298C307.494 269.442 307.983 270.769 308.146 272.004C308.227 272.507 308.35 273.102 308.227 273.605C308.146 273.971 307.901 274.337 307.901 274.749C308.431 274.109 308.431 272.873 309.002 272.324C308.757 273.697 308.879 275.115 308.92 276.488C308.961 277.128 309.043 277.815 308.716 278.455Z" fill="url(#paint2_linear_91_2)"/>
<path d="M317.684 276.579C317.684 276.533 317.684 276.533 317.684 276.579C318.01 275.756 318.295 274.886 318.459 274.017C318.622 273.285 318.866 272.644 319.07 271.912C318.948 272.141 318.377 273.148 318.132 273.193C317.847 273.239 318.051 272.553 318.051 272.278C318.051 271.546 317.929 270.814 318.173 270.082C318.459 269.259 319.192 268.755 319.396 267.84C319.518 267.154 319.274 266.513 319.355 265.827C319.478 266.193 319.396 267.291 318.825 267.108C318.051 266.879 319.029 264.958 319.192 264.546C319.641 263.356 320.048 261.892 319.844 260.611C319.681 259.788 319.192 258.964 319.151 258.141C319.437 259.193 319.641 261.114 319.07 262.121C318.825 262.533 318.622 262.579 318.622 262.03C318.622 261.664 318.785 261.16 318.948 260.84C318.377 261.206 318.255 261.938 318.132 262.624C318.051 263.082 318.051 263.631 317.725 263.997C317.439 264.317 317.113 264.546 316.828 264.866C316.665 264.226 316.665 263.722 316.665 263.082C316.665 262.899 316.828 261.755 316.828 262.441C316.828 261.892 316.869 261.389 317.032 260.886C317.195 260.428 317.154 260.062 317.236 259.559C317.317 259.056 317.603 258.598 317.725 258.095C317.847 257.591 317.806 257.042 317.806 256.493C317.806 255.944 318.01 255.258 317.969 254.755C317.806 255.121 317.562 256.356 317.195 256.356C317.073 256.036 317.195 255.487 317.195 255.167C317.195 254.755 317.195 254.434 317.276 254.068C317.521 252.833 317.684 251.552 318.214 250.408C317.766 250.774 317.439 251.552 317.276 252.147C317.154 252.604 317.113 253.474 316.665 253.748C316.665 253.336 316.787 252.879 316.869 252.467C316.95 252.055 317.195 251.506 317.113 251.095C316.747 251.872 316.787 252.97 316.217 253.611C315.809 254.114 315.605 253.519 315.687 253.062C315.768 252.559 315.931 252.101 316.054 251.644C315.768 252.147 315.442 252.65 315.238 253.245C315.116 253.565 315.116 253.931 315.034 254.251C314.912 254.618 314.749 254.663 314.586 254.892C314.219 255.395 314.219 256.31 314.26 256.997C314.342 258.507 314.831 259.971 314.994 261.481C315.279 264.317 315.034 267.291 315.198 270.174C315.32 272.278 315.809 274.291 315.891 276.35C315.931 277.128 315.931 277.906 315.727 278.638C315.524 279.37 315.483 280.194 315.279 280.926C316.135 279.416 317.073 278.135 317.684 276.579Z" fill="url(#paint3_linear_91_2)"/>
<path d="M314.79 231.512C314.83 232.015 314.953 232.519 314.912 233.022C312.67 231.787 310.55 231.466 308.064 231.558C305.333 231.649 302.153 231.832 299.504 232.839C298.159 233.342 297.099 234.395 295.876 234.944C296.732 233.297 297.466 231.421 298.444 229.865C299.218 228.63 300.319 227.76 300.849 226.251C300.564 227.074 300.115 228.538 300.115 229.362C300.278 229.179 300.564 228.858 300.849 228.721C301.134 228.401 301.297 228.081 301.583 227.715C301.868 227.532 302.153 227.898 302.479 227.532C303.784 226.525 304.232 223.917 305.129 222.453C304.844 224.1 304.558 225.747 304.232 227.394C303.947 229.545 303.947 228.858 305.537 228.218C305.537 230.368 307.452 227.577 307.575 227.074C308.308 225.427 308.757 223.78 309.776 222.499C309.776 223.505 309.409 224.512 309.164 225.473C309.042 225.884 308.553 227.486 309.491 227.166C310.265 226.891 310.265 225.656 310.387 224.969C310.55 223.917 311.488 223.277 311.529 222.224C311.569 221.584 311.569 220.897 311.61 220.257C311.61 219.845 311.651 219.388 311.529 219.021C311.488 219.388 311.692 219.845 311.814 220.211C311.936 220.669 312.14 221.172 312.181 221.675C312.222 222.133 312.222 222.728 312.099 223.139C311.977 223.643 311.732 224.1 311.529 224.603C311.243 225.381 311.121 226.296 311.162 227.12C311.203 227.898 311.406 229.636 312.222 229.865C312.588 230.002 312.874 229.682 313.078 229.362C313.363 228.858 313.567 228.309 313.934 227.852C313.771 228.675 313.363 229.636 313.648 230.323C314.667 229.499 315.564 227.715 316.298 226.525C316.053 227.943 315.075 229.179 314.871 230.597C314.586 232.473 314.871 233.846 314.097 235.721" fill="url(#paint4_linear_91_2)"/>
<path d="M272.764 281.292C272.886 280.103 272.642 278.776 272.764 277.586C272.886 276.717 273.171 275.802 273.416 274.932C272.479 276.122 272.356 277.723 271.174 278.776C271.419 277.312 272.112 276.122 272.479 274.795C272.723 273.468 272.886 272.141 273.253 270.952C272.845 272.004 272.479 274.2 271.419 275.07C271.296 274.2 271.949 272.691 272.193 271.821C272.315 270.952 272.601 269.9 272.723 269.03C272.723 270.815 271.663 272.553 270.767 273.88C269.421 275.802 269.218 276.214 268.932 278.684C268.688 281.109 267.995 283.717 268.81 286.051C268.728 285.822 270.644 284.586 270.889 284.358C271.786 283.626 272.519 282.528 272.764 281.292Z" fill="url(#paint5_linear_91_2)"/>
<path d="M275.943 246.794C274.598 245.742 274.72 241.944 274.109 240.251C273.334 238.101 275.046 235.905 275.535 233.8C275.535 233.937 275.78 234.257 275.78 234.395C276.718 232.931 276.555 230.689 277.37 229.225C277.9 231.146 277.125 233.663 276.718 235.401C276.31 237.14 276.473 239.245 275.943 240.846C276.065 240.388 276.473 239.794 276.881 239.519C276.881 240.709 276.228 242.036 276.351 243.225C276.881 242.768 277.411 241.761 277.94 241.166C277.94 242.951 276.636 244.552 276.514 246.336C276.636 246.336 276.636 246.199 276.758 246.199" fill="url(#paint6_linear_91_2)"/>
<path d="M235.426 232.198C233.551 232.244 231.758 231.603 229.923 231.466C227.763 231.283 225.929 232.152 223.891 232.335C222.219 232.472 222.872 231.145 223.565 230.185C224.38 228.995 224.991 228.126 225.603 226.707C225.603 226.982 225.643 228.995 225.48 229.132C226.54 228.4 227.437 226.341 228.252 225.289C229.557 223.505 230.739 221.171 231.391 219.112C231.146 219.982 227.315 231.054 231.391 227.943C231.391 229.407 231.799 228.995 232.695 228.4C234.244 227.394 233.633 228.995 234.815 228.583C235.997 228.171 235.915 225.426 236.853 224.603C236.69 225.518 235.304 228.995 236.975 228.034C237.791 227.577 238.524 226.25 239.054 225.426C238.28 226.433 238.076 228.08 238.076 229.361C238.076 230.413 238.198 232.244 236.853 232.244C236.894 232.152 236.894 232.06 236.894 231.969" fill="url(#paint7_linear_91_2)"/>
<path d="M257.926 262.854C257.641 264.226 257.763 267.2 256.826 268.207C255.603 269.488 254.91 268.024 254.788 266.88C254.299 262.305 254.788 257.592 254.339 252.971C253.891 248.624 253.606 244.232 253.565 239.84C253.565 237.094 252.342 233.068 253.769 230.552C254.299 229.637 254.951 229.042 255.358 227.944C255.766 226.891 256.011 225.793 256.459 224.787C256.174 225.793 255.888 227.44 256.011 228.493C256.948 227.166 257.07 225.839 257.56 224.375C258.701 226.846 257.926 229.499 258.293 232.107C258.416 233.114 258.619 233.846 258.538 234.898C258.375 236.454 258.701 237.46 258.823 238.97C258.986 241.075 258.09 243.271 257.763 245.33C257.519 246.931 257.234 248.716 256.826 250.18C257.07 248.579 257.763 246.657 258.416 245.147C258.946 243.82 259.353 242.768 259.475 241.304C259.598 240.572 259.475 238.787 260.128 238.376C260.78 239.84 260.128 242.082 259.883 243.546C259.638 245.605 259.109 247.526 258.579 249.585C258.171 251.369 258.049 253.703 257.152 255.487C257.152 254.435 257.56 253.428 257.804 252.559C257.926 254.023 257.274 255.67 257.152 257.134C257.926 256.86 258.334 255.945 258.742 255.35C258.986 256.951 257.804 258.598 257.682 260.2C259.394 259.148 260.046 254.298 260.454 252.376C259.231 255.67 258.701 259.468 257.926 262.854Z" fill="url(#paint8_linear_91_2)"/>
<path d="M179.826 276.945C180.683 277.677 182.802 278.363 183.332 278.317C182.395 278.409 181.742 278.912 180.927 279.278C180.071 279.644 179.134 279.553 178.237 279.69C176.076 279.965 173.834 279.736 171.715 279.644C172.53 278.089 174.364 277.265 174.935 275.618C174.854 276.03 174.772 277.494 174.568 277.768C175.057 277.128 175.832 276.579 176.199 275.938C176.525 275.343 176.443 274.428 176.484 273.742C176.606 272.507 177.055 271.637 177.666 270.631C177.299 271.546 176.851 272.598 176.81 273.651C176.81 274.154 177.014 274.566 176.973 275.023C176.932 275.938 176.525 276.853 176.484 277.768C177.422 277.174 178.074 276.167 178.848 275.572C178.522 275.801 178.441 276.762 178.481 277.174C179.663 276.121 179.827 278.455 180.886 277.402C181.702 276.579 181.905 274.611 182.15 273.468C182.191 274.703 181.987 276.487 181.661 277.86C182.476 277.402 182.843 275.526 183.128 274.657C183.536 273.422 184.066 272.003 184.025 270.677C184.025 272.553 183.862 274.337 183.699 276.213C183.617 277.082 183.251 278.546 183.658 279.37C183.21 279.599 182.517 279.782 182.028 279.736C181.987 279.599 182.068 279.507 182.109 279.37" fill="url(#paint9_linear_91_2)"/>
<path d="M204.528 277.036C204.324 278.775 204.079 280.788 202.327 280.925C200.615 281.108 198.78 279.416 198.087 277.768C197.191 275.664 197.68 272.736 198.087 270.539C198.373 269.121 198.821 266.147 199.799 265.095C199.392 266.559 198.617 269.35 199.025 270.86C200.981 270.997 201.919 262.899 202.164 261.114C201.919 263.905 201.756 266.879 201.511 269.807C201.267 271.729 200.329 274.245 200.452 275.984C200.981 275.389 201.389 274.383 201.756 273.605C202 274.474 201.756 275.664 201.756 276.533C203.468 274.932 203.59 271.958 204.65 269.899C204.935 272.141 204.813 274.657 204.528 277.036Z" fill="url(#paint10_linear_91_2)"/>
<path d="M107.229 219.57C106.577 220.623 105.884 221.721 105.232 222.773C104.457 223.963 103.438 225.106 103.031 226.525C102.745 227.531 102.949 228.584 102.582 229.59C101.808 231.878 100.3 234.166 98.1799 234.989C95.7749 235.858 92.9623 234.532 90.6389 234.028C87.0926 233.205 83.5463 233.388 80 232.793C82.1196 230.048 85.9105 229.773 88.0709 226.937C90.1498 224.237 90.3128 219.982 92.6363 217.374C92.6363 220.485 89.8644 222.819 89.8644 225.93C89.8644 225.838 92.2286 224.512 92.4732 224.329C93.2477 223.78 93.9406 223.185 94.5521 222.407C95.8157 220.851 96.7125 219.021 97.7315 217.283C98.9136 215.315 100.34 213.531 101.889 211.884C102.786 210.923 103.927 209.733 105.028 209.093C102.297 212.479 99.0359 215.498 98.3837 220.302C98.2207 221.4 97.8946 223.231 99.4028 222.407C100.259 221.949 100.992 220.943 100.87 219.845C100.626 220.44 101.319 221.675 101.359 222.407C101.441 223.642 100.503 224.42 100.3 225.518C99.9327 227.211 101.482 226.021 102.012 225.518C103.927 223.688 105.191 221.172 107.229 219.57Z" fill="url(#paint11_linear_91_2)"/>
<path d="M114.24 232.061C115.911 231.054 116.727 228.263 117.501 226.387C118.561 224.328 120.11 223.047 121.414 221.309C120.355 223.047 117.787 226.982 118.439 229.178C119.988 227.851 121.292 225.381 122.189 223.642C123.493 221.309 124.268 218.243 125.939 216.367C125.164 217.237 124.879 218.975 124.512 220.165C123.982 222.041 123.616 223.825 123.33 225.838C122.923 228.904 121.659 230.23 120.355 232.518C121.659 232.244 122.678 229.727 122.963 228.446C122.311 229.59 122.311 231.374 121.781 232.655C121.251 234.257 120.355 235.858 119.58 237.322C118.683 239.061 117.909 241.852 116.441 242.996C115.911 242.264 115.789 240.525 115.545 239.518C115.137 238.054 114.363 236.316 114.24 234.852" fill="url(#paint12_linear_91_2)"/>
<path d="M97.202 243.728C97.1613 243.819 97.5281 244.78 97.5281 245.009C97.5689 245.695 97.4058 246.473 97.2428 247.113C96.9167 248.303 96.0607 249.172 95.6938 250.316C95.327 251.414 95.9792 252.787 95.4493 253.748C94.7563 255.166 91.4138 254.983 90.2725 254.708C90.5578 253.61 91.6584 252.97 92.1475 251.963C92.4329 251.414 93.5742 249.63 93.6557 249.126C93.5334 249.996 92.8812 250.591 92.8812 251.597C93.6557 251.14 94.5525 249.721 95.0824 248.806C96.1422 247.205 96.5498 245.603 97.202 243.728Z" fill="url(#paint13_linear_91_2)"/>
<path d="M157 236.271C155.736 234.258 154.513 232.245 152.149 231.833C151.293 231.696 146.279 230.781 145.872 231.421C147.257 229.362 151.415 227.852 151.415 224.741C151.293 225.885 150.763 227.075 150.641 228.218C151.293 227.898 152.19 227.303 152.597 226.617C152.842 226.205 152.964 225.748 153.209 225.336C153.494 224.833 153.902 224.421 154.269 224.055C154.839 223.506 155.451 223.048 156.021 222.591C155.614 222.911 155.125 223.369 154.921 223.872C154.798 224.146 154.432 224.97 154.88 225.061C155.369 225.153 155.777 224.329 156.062 224.009C156.429 223.597 156.755 223.003 156.796 222.408C156.796 222.728 156.918 223.094 156.877 223.46C156.837 223.78 156.837 224.192 156.714 224.467C156.307 225.336 155.532 225.839 155.247 226.8C155.125 227.303 155.084 227.761 155.369 228.218C155.491 228.447 155.818 228.676 156.062 228.676C156.307 228.676 156.388 228.447 156.51 228.264C156.877 227.761 157.244 227.303 157.57 226.754C158.1 225.931 158.508 224.878 159.16 224.146C158.915 225.153 156.714 229.683 159.038 228.356C160.546 227.486 160.709 223.872 161.28 222.271C160.75 225.29 160.831 228.767 160.709 231.833C160.668 232.657 160.098 233.251 161.239 233.16C162.013 233.114 162.951 231.558 163.155 230.872C162.625 231.879 161.647 234.075 161.769 235.356C163.481 234.121 164.704 231.421 164.459 229.134C163.848 230.369 163.97 232.748 163.807 234.258C163.562 236.18 163.359 238.193 162.91 240.069C162.38 242.173 161.932 246.337 160.261 247.618C159.771 246.016 159.812 244.095 159.445 242.402C158.997 240.16 158.182 238.193 157 236.271Z" fill="url(#paint14_linear_91_2)"/>
<path d="M94.1854 353.84L90.8444 360.772V384.099H80V308.211H90.8444V341.242L105.03 308.211H115.874L100.758 342.026L115.874 384.099H104.756L94.1854 353.84Z" fill="white"/>
<path d="M121.394 308.211H131.052V384.099H121.394V308.211Z" fill="white"/>
<path d="M136.571 308.211H169.685V319.061H158.485V384.099H147.771V319.061H136.571V308.211Z" fill="white"/>
<path d="M171.065 308.211H204.18V319.061H192.979V384.099H182.265V319.061H171.065V308.211Z" fill="white"/>
<path d="M220.323 340.192H234.918V351.033H220.323V373.258H238.675V384.099H209.699V308.211H238.675V319.052H220.323V340.192Z" fill="white"/>
<path d="M255.35 329.127V384.099H245.573V308.211H259.25L270.4 353.599V308.211H280.068V384.099H268.917L255.35 329.127Z" fill="white"/>
<path d="M302.2 306.663C313.033 306.663 318.589 313.721 318.589 326.056V328.511H308.094V325.32C308.094 319.797 306.073 317.71 302.537 317.71C299.001 317.71 296.981 319.797 296.981 325.32C296.981 341.215 318.702 344.161 318.702 366.255C318.702 378.591 313.033 385.648 302.144 385.648C291.256 385.648 285.587 378.591 285.587 366.255V361.529H296.083V367.053C296.083 372.576 298.328 374.54 301.864 374.54C305.4 374.54 307.645 372.576 307.645 367.053C307.645 351.157 285.924 348.212 285.924 326.118C285.868 313.721 291.424 306.663 302.2 306.663Z" fill="white"/>
<path d="M121.17 219.204C120.884 217.74 121.17 216.185 121.74 214.858C122.026 214.172 122.392 213.531 122.882 213.028C123.289 212.57 123.86 212.296 124.308 211.93C123.085 213.257 122.882 214.263 122.392 216.002C122.107 217.054 121.17 218.061 121.17 219.204Z" fill="url(#paint15_linear_91_2)"/>
<path d="M80.041 286.691H101.889V278.547H87.8266V261.618H98.7508V253.474H87.8266V237.735H101.889V229.591H80.041V286.691Z" fill="url(#paint16_linear_91_2)"/>
<path d="M133.48 229.591H126.061L119.865 250.637L113.791 229.591H105.517L113.873 257.317L104.905 286.691H112.406L119.05 264.089L125.612 286.691H134.05L125.083 257.317L133.48 229.591Z" fill="url(#paint17_linear_91_2)"/>
<path d="M149.866 229.591H138.29V286.691H146.075V265.141H149.866C157.896 265.141 161.687 260.108 161.687 250.958V243.546C161.687 234.395 157.855 229.591 149.866 229.591ZM153.861 251.552C153.861 255.624 152.393 256.997 149.866 256.997H146.075V237.781H149.866C152.434 237.781 153.861 238.924 153.861 242.997V251.552Z" fill="url(#paint18_linear_91_2)"/>
<path d="M173.631 229.591H165.315V286.691H186.634V278.547H173.631V229.591Z" fill="url(#paint19_linear_91_2)"/>
<path d="M201.716 228.767C193.849 228.767 189.772 233.982 189.772 243.133V272.827C189.772 281.978 193.849 287.194 201.716 287.194C209.583 287.194 213.659 281.978 213.659 272.827V243.133C213.659 233.982 209.583 228.767 201.716 228.767ZM205.873 273.422C205.873 277.494 204.243 279.049 201.716 279.049C199.148 279.049 197.558 277.494 197.558 273.422V242.538C197.558 238.466 199.189 236.911 201.716 236.911C204.284 236.911 205.873 238.466 205.873 242.538V273.422Z" fill="url(#paint20_linear_91_2)"/>
<path d="M231.757 229.591H218.876V286.691H231.757C239.787 286.691 243.864 281.567 243.864 272.416V243.546C243.823 234.395 239.747 229.591 231.757 229.591ZM235.507 272.828C235.507 276.9 234.121 278.501 231.594 278.501H227.192V237.735H231.594C234.162 237.735 235.507 239.062 235.507 243.134V272.828Z" fill="url(#paint21_linear_91_2)"/>
<path d="M256.826 229.591H249.04V286.691H256.826V229.591Z" fill="url(#paint22_linear_91_2)"/>
<path d="M280.753 263.631L272.601 229.591H262.573V286.691H269.829V245.147L279.734 286.691H288.05V229.591H280.753V263.631Z" fill="url(#paint23_linear_91_2)"/>
<path d="M317.154 248.807V243.133C317.154 233.982 313.077 228.767 305.21 228.767C297.343 228.767 293.267 233.982 293.267 243.133V272.827C293.267 281.978 297.343 287.194 305.21 287.194C313.077 287.194 317.154 281.978 317.154 272.827V254.617H305.7V262.761H309.327V273.376C309.327 277.448 307.697 278.912 305.17 278.912C302.602 278.912 301.012 277.448 301.012 273.376V242.538C301.012 238.466 302.642 236.911 305.17 236.911C307.738 236.911 309.327 238.466 309.327 242.538V248.807H317.154Z" fill="url(#paint24_linear_91_2)"/>
<path d="M320.578 252.88C320.415 253.795 319.6 254.161 319.355 255.03C319.396 254.344 319.803 253.749 319.966 253.108C320.129 252.422 320.17 251.598 320.007 250.912C320.415 251.37 320.7 252.239 320.578 252.88Z" fill="url(#paint25_linear_91_2)"/>
<path d="M262.288 218.519C262.125 218.702 262.003 220.623 261.881 221.035C261.677 221.813 261.351 222.499 261.066 223.277C260.617 224.604 260.495 225.976 260.169 227.349C260.087 225.793 260.21 223.231 260.78 221.813C261.147 220.898 261.677 219.205 262.288 218.519Z" fill="url(#paint26_linear_91_2)"/>
<path d="M233.388 225.474C232.981 223.003 234.937 220.624 236.282 218.977C235.956 220.12 235.916 221.493 235.345 222.545C234.693 223.643 233.348 223.872 233.388 225.474Z" fill="url(#paint27_linear_91_2)"/>
<path d="M181.987 269.853C181.579 270.905 180.275 272.278 180.56 273.559C180.316 272.232 180.519 270.768 180.968 269.487C181.131 268.984 181.375 268.48 181.62 268.023C181.865 267.565 182.15 267.154 182.272 266.604C182.435 266.742 182.394 267.108 182.313 267.291C182.272 267.52 182.231 267.703 182.231 267.977C182.231 268.618 182.231 269.304 181.987 269.853Z" fill="url(#paint28_linear_91_2)"/>
<path d="M177.952 269.58C178.033 269.168 178.726 268.985 178.808 268.253C178.848 267.658 178.522 266.926 178.196 266.469C178.155 267.521 178.196 268.573 177.952 269.58Z" fill="url(#paint29_linear_91_2)"/>
<path d="M161.116 218.61C161.279 218.656 160.994 219.068 160.912 219.205C160.749 219.663 160.749 220.12 160.586 220.578C160.383 221.218 159.486 221.676 159.69 222.454C159.69 222.042 159.73 221.722 159.853 221.31C159.975 220.898 159.975 220.44 160.097 220.029C160.26 219.434 160.586 218.839 161.157 218.656" fill="url(#paint30_linear_91_2)"/>
<path d="M308.104 217.65C307.86 218.29 307.901 219.068 307.778 219.754C307.697 220.166 307.411 220.486 307.289 220.898C307.126 221.31 307.004 221.722 307.004 222.179C306.882 221.676 306.882 221.035 307.004 220.532C307.085 220.12 307.126 219.663 307.167 219.251C307.289 218.473 307.738 217.924 308.227 217.375" fill="url(#paint31_linear_91_2)"/>
<path d="M312.67 225.472C312.914 225.793 312.71 226.204 312.629 226.525C312.507 227.028 312.588 227.531 312.71 227.989C312.588 227.44 312.914 227.119 313.118 226.708C313.281 226.387 313.322 225.655 313.24 225.289C313.077 224.74 312.629 225.655 312.547 225.93C312.303 226.662 312.547 227.302 312.507 228.034C312.507 227.806 312.547 227.165 312.792 226.982C312.833 227.211 312.833 227.44 312.914 227.668C312.996 227.394 312.914 227.074 312.996 226.799C313.077 226.479 313.322 226.159 313.485 225.884C313.729 225.472 313.77 225.06 313.811 224.603C313.852 224.237 313.933 223.871 313.892 223.505C313.892 223.779 313.811 224.008 313.689 224.237C313.526 224.466 313.24 224.694 313.118 224.969C313.077 225.152 313.159 225.198 313.159 225.381C313.159 225.61 312.996 225.747 312.996 225.976C312.873 225.747 312.792 225.61 312.67 225.472C312.67 225.427 312.71 225.472 312.71 225.472Z" fill="url(#paint32_linear_91_2)"/>
<g filter="url(#filter0_i_91_2)">
<path d="M241.501 159.334C240.623 155.738 239.53 152.262 238.707 148.665C237.5 143.569 237.849 136.305 234.757 132.118C233.292 130.145 232.045 128.471 230.956 126.135C229.977 123.979 228.997 121.763 227.371 120.091C227.327 122.552 230.161 129.62 228.873 131.547C228.176 132.631 226.231 131.921 225.367 131.685C223.477 131.214 221.641 130.983 219.699 130.933C217.594 130.883 215.063 132.156 213.011 131.746C211.284 131.395 208.953 128.766 207.492 127.632C204.894 125.605 202.291 122.256 199.48 120.95C200.68 124.125 202.904 127.115 204.803 129.807C206.485 132.139 206.056 132.861 204.717 135.389C203.753 137.254 203.059 139.179 202.474 141.222C202.208 142.244 202 144.166 201.302 145.009C200.55 145.853 198.608 145.923 197.475 146.109C190.898 147.522 184.322 148.995 178.238 152.327C171.993 155.779 165.435 162.114 163.793 169.865C163.423 171.667 163.538 173.587 163.114 175.39C163.008 175.811 162.901 176.231 162.795 176.652C158.598 179.554 154.405 183.416 154.428 189.298C154.2 199.863 164.859 207.372 173.173 208.652C177.006 209.293 183.373 209.441 186.49 206.124C189.015 203.471 184.694 202.352 182.913 202.181C179.35 201.538 175.79 202.036 172.228 201.574C169.258 201.108 166.448 199.982 163.797 198.134C161.417 196.526 158.44 194.08 158.749 190.417C158.9 187.655 160.509 185.126 162.226 182.837C162.458 186.857 163.553 190.873 165.885 194.043C168.164 197.152 173.451 197.066 176.742 197.11C178.253 197.102 182.032 197.564 182.617 195.46C182.989 194.138 181.635 192.884 181.308 191.865C182.601 191.559 184.172 193.111 185.468 193.405C187.791 193.994 190.329 194.641 192.758 194.869C195.997 195.213 199.663 194.475 202.794 194.999C201.407 199.028 215.286 202.32 212.29 194.952C214.882 195.54 217.632 195.226 220.223 195.453C221.141 195.508 228.37 195.472 228.583 194.571C228.21 195.833 226.107 196.084 226.762 198.001C227.363 199.859 230.06 199.846 231.463 199.719C233.836 199.587 236.21 199.635 238.637 199.443C240.849 199.312 243.115 199.361 244.185 197.074C245.363 194.608 245.617 190.705 245.822 188.003C246.594 178.516 243.749 168.446 241.501 159.334ZM211.668 146.698C205.239 144.75 208.43 133.03 214.374 135.161C216.049 135.753 216.974 137.669 217.358 139.468C218.293 143.844 216.097 147.997 211.668 146.698ZM227.101 147.402C220.673 145.453 223.864 133.733 229.807 135.804C231.482 136.396 232.407 138.312 232.792 140.111C233.727 144.548 231.477 148.701 227.101 147.402Z" fill="url(#paint33_linear_91_2)"/>
</g>
</g>
<rect x="0.5" y="0.5" width="399" height="557" stroke="#292929"/>
<defs>
<filter id="filter0_i_91_2" x="154.424" y="120.091" width="91.5269" height="88.9277" filterUnits="userSpaceOnUse" color-interpolation-filters="sRGB">
<feFlood flood-opacity="0" result="BackgroundImageFix"/>
<feBlend mode="normal" in="SourceGraphic" in2="BackgroundImageFix" result="shape"/>
<feColorMatrix in="SourceAlpha" type="matrix" values="0 0 0 0 0 0 0 0 0 0 0 0 0 0 0 0 0 0 127 0" result="hardAlpha"/>
<feOffset/>
<feGaussianBlur stdDeviation="2.65"/>
<feComposite in2="hardAlpha" operator="arithmetic" k2="-1" k3="1"/>
<feColorMatrix type="matrix" values="0 0 0 0 0 0 0 0 0 0 0 0 0 0 0 0 0 0 0.25 0"/>
<feBlend mode="normal" in2="shape" result="effect1_innerShadow_91_2"/>
</filter>
<radialGradient id="paint0_radial_91_2" cx="0" cy="0" r="1" gradientUnits="userSpaceOnUse" gradientTransform="translate(200 279) rotate(90) scale(279 200)">
<stop stop-opacity="0"/>
<stop offset="1"/>
</radialGradient>
<linearGradient id="paint1_linear_91_2" x1="100.786" y1="270.813" x2="100.786" y2="283.628" gradientUnits="userSpaceOnUse">
<stop stop-color="#FFDD15"/>
<stop offset="1" stop-color="#ED1C24"/>
</linearGradient>
<linearGradient id="paint2_linear_91_2" x1="304.915" y1="268.298" x2="304.915" y2="279.423" gradientUnits="userSpaceOnUse">
<stop stop-color="#FFDD15"/>
<stop offset="1" stop-color="#ED1C24"/>
</linearGradient>
<linearGradient id="paint3_linear_91_2" x1="317.07" y1="250.408" x2="317.07" y2="280.926" gradientUnits="userSpaceOnUse">
<stop stop-color="#FFDD15"/>
<stop offset="1" stop-color="#ED1C24"/>
</linearGradient>
<linearGradient id="paint4_linear_91_2" x1="16261.7" y1="733.38" x2="16607.2" y2="1220.17" gradientUnits="userSpaceOnUse">
<stop stop-color="#ED1C24"/>
<stop offset="1" stop-color="#FCEE21"/>
</linearGradient>
<linearGradient id="paint5_linear_91_2" x1="270.92" y1="269.03" x2="270.92" y2="286.051" gradientUnits="userSpaceOnUse">
<stop stop-color="#FFDD15"/>
<stop offset="1" stop-color="#ED1C24"/>
</linearGradient>
<linearGradient id="paint6_linear_91_2" x1="275.926" y1="229.225" x2="275.926" y2="246.794" gradientUnits="userSpaceOnUse">
<stop stop-color="#FFDD15"/>
<stop offset="1" stop-color="#ED1C24"/>
</linearGradient>
<linearGradient id="paint7_linear_91_2" x1="230.946" y1="219.112" x2="230.946" y2="232.345" gradientUnits="userSpaceOnUse">
<stop stop-color="#FFDD15"/>
<stop offset="1" stop-color="#ED1C24"/>
</linearGradient>
<linearGradient id="paint8_linear_91_2" x1="256.765" y1="224.375" x2="256.765" y2="268.705" gradientUnits="userSpaceOnUse">
<stop stop-color="#FFDD15"/>
<stop offset="1" stop-color="#ED1C24"/>
</linearGradient>
<linearGradient id="paint9_linear_91_2" x1="177.871" y1="270.631" x2="177.871" y2="279.821" gradientUnits="userSpaceOnUse">
<stop stop-color="#FFDD15"/>
<stop offset="1" stop-color="#ED1C24"/>
</linearGradient>
<linearGradient id="paint10_linear_91_2" x1="201.197" y1="261.114" x2="201.197" y2="280.939" gradientUnits="userSpaceOnUse">
<stop stop-color="#FFDD15"/>
<stop offset="1" stop-color="#ED1C24"/>
</linearGradient>
<linearGradient id="paint11_linear_91_2" x1="93.6145" y1="209.093" x2="93.6145" y2="235.277" gradientUnits="userSpaceOnUse">
<stop stop-color="#FFDD15"/>
<stop offset="1" stop-color="#ED1C24"/>
</linearGradient>
<linearGradient id="paint12_linear_91_2" x1="120.09" y1="216.367" x2="120.09" y2="242.996" gradientUnits="userSpaceOnUse">
<stop stop-color="#FFDD15"/>
<stop offset="1" stop-color="#ED1C24"/>
</linearGradient>
<linearGradient id="paint13_linear_91_2" x1="93.9035" y1="243.728" x2="93.9035" y2="254.899" gradientUnits="userSpaceOnUse">
<stop stop-color="#FFDD15"/>
<stop offset="1" stop-color="#ED1C24"/>
</linearGradient>
<linearGradient id="paint14_linear_91_2" x1="155.181" y1="222.271" x2="155.181" y2="247.618" gradientUnits="userSpaceOnUse">
<stop stop-color="#FFDD15"/>
<stop offset="1" stop-color="#ED1C24"/>
</linearGradient>
<linearGradient id="paint15_linear_91_2" x1="122.683" y1="211.93" x2="122.683" y2="219.204" gradientUnits="userSpaceOnUse">
<stop stop-color="#FFDD15"/>
<stop offset="1" stop-color="#ED1C24"/>
</linearGradient>
<linearGradient id="paint16_linear_91_2" x1="90.9653" y1="229.591" x2="90.9653" y2="286.691" gradientUnits="userSpaceOnUse">
<stop stop-color="#FFDD15"/>
<stop offset="1" stop-color="#ED1C24"/>
</linearGradient>
<linearGradient id="paint17_linear_91_2" x1="119.478" y1="229.591" x2="119.478" y2="286.691" gradientUnits="userSpaceOnUse">
<stop stop-color="#FFDD15"/>
<stop offset="1" stop-color="#ED1C24"/>
</linearGradient>
<linearGradient id="paint18_linear_91_2" x1="149.988" y1="229.591" x2="149.988" y2="286.691" gradientUnits="userSpaceOnUse">
<stop stop-color="#FFDD15"/>
<stop offset="1" stop-color="#ED1C24"/>
</linearGradient>
<linearGradient id="paint19_linear_91_2" x1="175.975" y1="229.591" x2="175.975" y2="286.691" gradientUnits="userSpaceOnUse">
<stop stop-color="#FFDD15"/>
<stop offset="1" stop-color="#ED1C24"/>
</linearGradient>
<linearGradient id="paint20_linear_91_2" x1="201.716" y1="228.767" x2="201.716" y2="287.194" gradientUnits="userSpaceOnUse">
<stop stop-color="#FFDD15"/>
<stop offset="1" stop-color="#ED1C24"/>
</linearGradient>
<linearGradient id="paint21_linear_91_2" x1="231.37" y1="229.591" x2="231.37" y2="286.691" gradientUnits="userSpaceOnUse">
<stop stop-color="#FFDD15"/>
<stop offset="1" stop-color="#ED1C24"/>
</linearGradient>
<linearGradient id="paint22_linear_91_2" x1="252.933" y1="229.591" x2="252.933" y2="286.691" gradientUnits="userSpaceOnUse">
<stop stop-color="#FFDD15"/>
<stop offset="1" stop-color="#ED1C24"/>
</linearGradient>
<linearGradient id="paint23_linear_91_2" x1="275.311" y1="229.591" x2="275.311" y2="286.691" gradientUnits="userSpaceOnUse">
<stop stop-color="#FFDD15"/>
<stop offset="1" stop-color="#ED1C24"/>
</linearGradient>
<linearGradient id="paint24_linear_91_2" x1="305.21" y1="228.767" x2="305.21" y2="287.194" gradientUnits="userSpaceOnUse">
<stop stop-color="#FFDD15"/>
<stop offset="1" stop-color="#ED1C24"/>
</linearGradient>
<linearGradient id="paint25_linear_91_2" x1="319.981" y1="250.912" x2="319.981" y2="255.03" gradientUnits="userSpaceOnUse">
<stop stop-color="#FFDD15"/>
<stop offset="1" stop-color="#ED1C24"/>
</linearGradient>
<linearGradient id="paint26_linear_91_2" x1="261.217" y1="218.519" x2="261.217" y2="227.349" gradientUnits="userSpaceOnUse">
<stop stop-color="#FFDD15"/>
<stop offset="1" stop-color="#ED1C24"/>
</linearGradient>
<linearGradient id="paint27_linear_91_2" x1="234.808" y1="218.977" x2="234.808" y2="225.474" gradientUnits="userSpaceOnUse">
<stop stop-color="#FFDD15"/>
<stop offset="1" stop-color="#ED1C24"/>
</linearGradient>
<linearGradient id="paint28_linear_91_2" x1="181.42" y1="266.604" x2="181.42" y2="273.559" gradientUnits="userSpaceOnUse">
<stop stop-color="#FFDD15"/>
<stop offset="1" stop-color="#ED1C24"/>
</linearGradient>
<linearGradient id="paint29_linear_91_2" x1="178.381" y1="266.469" x2="178.381" y2="269.58" gradientUnits="userSpaceOnUse">
<stop stop-color="#FFDD15"/>
<stop offset="1" stop-color="#ED1C24"/>
</linearGradient>
<linearGradient id="paint30_linear_91_2" x1="160.413" y1="218.61" x2="160.413" y2="222.454" gradientUnits="userSpaceOnUse">
<stop stop-color="#FFDD15"/>
<stop offset="1" stop-color="#ED1C24"/>
</linearGradient>
<linearGradient id="paint31_linear_91_2" x1="307.569" y1="217.375" x2="307.569" y2="222.179" gradientUnits="userSpaceOnUse">
<stop stop-color="#FFDD15"/>
<stop offset="1" stop-color="#ED1C24"/>
</linearGradient>
<linearGradient id="paint32_linear_91_2" x1="313.17" y1="223.505" x2="313.17" y2="228.034" gradientUnits="userSpaceOnUse">
<stop stop-color="#FFDD15"/>
<stop offset="1" stop-color="#ED1C24"/>
</linearGradient>
<linearGradient id="paint33_linear_91_2" x1="199.924" y1="120.227" x2="200.365" y2="208.905" gradientUnits="userSpaceOnUse">
<stop stop-color="#FFDD15"/>
<stop offset="1" stop-color="#ED1C24"/>
</linearGradient>
<clipPath id="clip0_91_2">
<rect width="400" height="558" fill="white"/>
</clipPath>
</defs>
</svg>
