<svg width="400" height="558" viewBox="0 0 400 558" fill="none" xmlns="http://www.w3.org/2000/svg">
<g clip-path="url(#clip0_106_48)">
<rect x="0.5" y="0.5" width="399" height="557" rx="25.5" fill="#B0141F"/>
<rect x="0.5" y="0.5" width="399" height="557" rx="25.5" fill="url(#paint0_radial_106_48)" fill-opacity="0.4"/>
<rect x="0.5" y="0.5" width="399" height="557" rx="25.5" stroke="#292929"/>
<path d="M101.604 283.532C100.87 283.623 100.789 281.747 100.137 281.061C99.4029 280.237 98.3838 280.283 97.4463 280.146C99.1991 279.002 99.2806 276.211 100.137 274.335C100.137 275.25 99.7697 276.211 100.137 277.035C101.156 275.845 102.297 272.322 102.338 270.721C102.338 271.407 101.686 274.289 102.419 274.472C103.316 274.701 103.887 271.453 104.091 270.858C104.254 273.191 103.805 275.662 103.642 277.812C103.479 278.956 103.357 279.963 102.908 280.969C102.908 281.29 102.175 282.8 102.46 282.296" fill="url(#paint1_linear_106_48)"/>
<path d="M308.716 278.362C307.942 279.918 307.045 279.049 305.782 279.14C305.17 279.186 304.559 279.369 303.906 279.323C303.132 279.232 302.235 278.911 301.746 278.179C301.257 277.493 300.972 276.486 300.849 275.663C300.727 274.656 301.175 274.153 301.42 273.284C301.624 272.552 301.95 271.911 302.194 271.088C302.113 271.682 301.216 274.428 302.194 274.153C302.847 274.016 303.05 272.048 303.173 271.454C303.377 270.813 303.58 269.761 304.273 269.486C303.703 271.088 303.091 272.826 303.051 274.565C303.051 275.205 303.254 276.075 303.906 275.297C304.314 274.794 304.436 274.153 304.803 273.604C304.681 273.878 304.355 274.702 304.599 275.068C305.007 275.571 305.374 274.565 305.455 274.199C305.7 273.101 305.455 271.362 305.007 270.355C305.333 271.454 305.782 272.414 305.904 273.558C306.026 274.428 305.578 275.16 305.659 275.983C306.393 275.983 306.393 274.245 306.434 273.65C306.556 272.552 306.841 271.591 307.167 270.539C307.045 270.996 306.923 271.682 307.045 272.048C307.82 271.454 307.575 269.074 307.575 268.205C307.494 269.349 307.983 270.676 308.146 271.911C308.227 272.414 308.35 273.009 308.227 273.512C308.146 273.878 307.901 274.245 307.901 274.656C308.431 274.016 308.431 272.78 309.002 272.231C308.757 273.604 308.879 275.022 308.92 276.395C308.961 277.035 309.043 277.722 308.716 278.362Z" fill="url(#paint2_linear_106_48)"/>
<path d="M317.684 276.486C317.684 276.441 317.684 276.441 317.684 276.486C318.01 275.663 318.295 274.793 318.459 273.924C318.622 273.192 318.866 272.552 319.07 271.819C318.948 272.048 318.377 273.055 318.132 273.101C317.847 273.146 318.051 272.46 318.051 272.186C318.051 271.453 317.929 270.721 318.173 269.989C318.459 269.166 319.192 268.663 319.396 267.747C319.518 267.061 319.274 266.421 319.355 265.734C319.478 266.1 319.396 267.198 318.825 267.015C318.051 266.787 319.029 264.865 319.192 264.453C319.641 263.264 320.048 261.8 319.844 260.518C319.681 259.695 319.192 258.871 319.151 258.048C319.437 259.1 319.641 261.022 319.07 262.028C318.825 262.44 318.622 262.486 318.622 261.937C318.622 261.571 318.785 261.067 318.948 260.747C318.377 261.113 318.255 261.845 318.132 262.532C318.051 262.989 318.051 263.538 317.725 263.904C317.439 264.224 317.113 264.453 316.828 264.773C316.665 264.133 316.665 263.63 316.665 262.989C316.665 262.806 316.828 261.662 316.828 262.349C316.828 261.8 316.869 261.296 317.032 260.793C317.195 260.335 317.154 259.969 317.236 259.466C317.317 258.963 317.603 258.505 317.725 258.002C317.847 257.499 317.806 256.95 317.806 256.401C317.806 255.852 318.01 255.165 317.969 254.662C317.806 255.028 317.562 256.263 317.195 256.263C317.073 255.943 317.195 255.394 317.195 255.074C317.195 254.662 317.195 254.342 317.276 253.976C317.521 252.74 317.684 251.459 318.214 250.315C317.766 250.681 317.439 251.459 317.276 252.054C317.154 252.512 317.113 253.381 316.665 253.655C316.665 253.244 316.787 252.786 316.869 252.374C316.95 251.963 317.195 251.414 317.113 251.002C316.747 251.78 316.787 252.878 316.217 253.518C315.809 254.021 315.605 253.427 315.687 252.969C315.768 252.466 315.931 252.008 316.054 251.551C315.768 252.054 315.442 252.557 315.238 253.152C315.116 253.472 315.116 253.838 315.034 254.159C314.912 254.525 314.749 254.57 314.586 254.799C314.219 255.303 314.219 256.218 314.26 256.904C314.342 258.414 314.831 259.878 314.994 261.388C315.279 264.224 315.034 267.198 315.198 270.081C315.32 272.186 315.809 274.199 315.891 276.258C315.931 277.035 315.931 277.813 315.727 278.545C315.524 279.277 315.483 280.101 315.279 280.833C316.135 279.323 317.073 278.042 317.684 276.486Z" fill="url(#paint3_linear_106_48)"/>
<path d="M314.79 231.419C314.83 231.923 314.953 232.426 314.912 232.929C312.67 231.694 310.55 231.374 308.064 231.465C305.333 231.557 302.153 231.74 299.504 232.746C298.159 233.25 297.099 234.302 295.876 234.851C296.732 233.204 297.466 231.328 298.444 229.772C299.218 228.537 300.319 227.668 300.849 226.158C300.564 226.981 300.115 228.445 300.115 229.269C300.278 229.086 300.564 228.766 300.849 228.628C301.134 228.308 301.297 227.988 301.583 227.622C301.868 227.439 302.153 227.805 302.479 227.439C303.784 226.432 304.232 223.824 305.129 222.36C304.844 224.007 304.558 225.654 304.232 227.302C303.947 229.452 303.947 228.766 305.537 228.125C305.537 230.276 307.452 227.485 307.575 226.981C308.308 225.334 308.757 223.687 309.776 222.406C309.776 223.413 309.409 224.419 309.164 225.38C309.042 225.792 308.553 227.393 309.491 227.073C310.265 226.798 310.265 225.563 310.387 224.877C310.55 223.824 311.488 223.184 311.529 222.131C311.569 221.491 311.569 220.805 311.61 220.164C311.61 219.752 311.651 219.295 311.529 218.929C311.488 219.295 311.692 219.752 311.814 220.118C311.936 220.576 312.14 221.079 312.181 221.582C312.222 222.04 312.222 222.635 312.099 223.047C311.977 223.55 311.732 224.007 311.529 224.511C311.243 225.288 311.121 226.203 311.162 227.027C311.203 227.805 311.406 229.543 312.222 229.772C312.588 229.91 312.874 229.589 313.078 229.269C313.363 228.766 313.567 228.217 313.934 227.759C313.771 228.583 313.363 229.543 313.648 230.23C314.667 229.406 315.564 227.622 316.298 226.432C316.053 227.851 315.075 229.086 314.871 230.504C314.586 232.38 314.871 233.753 314.097 235.629" fill="url(#paint4_linear_106_48)"/>
<path d="M272.764 281.199C272.886 280.01 272.642 278.683 272.764 277.493C272.886 276.624 273.171 275.709 273.416 274.84C272.479 276.029 272.356 277.631 271.174 278.683C271.419 277.219 272.112 276.029 272.479 274.702C272.723 273.376 272.886 272.049 273.253 270.859C272.845 271.911 272.479 274.108 271.419 274.977C271.296 274.108 271.949 272.598 272.193 271.728C272.315 270.859 272.601 269.807 272.723 268.938C272.723 270.722 271.663 272.461 270.767 273.787C269.421 275.709 269.218 276.121 268.932 278.591C268.688 281.016 267.995 283.624 268.81 285.958C268.728 285.729 270.644 284.494 270.889 284.265C271.786 283.533 272.519 282.435 272.764 281.199Z" fill="url(#paint5_linear_106_48)"/>
<path d="M275.943 246.701C274.598 245.649 274.72 241.851 274.109 240.158C273.334 238.008 275.046 235.812 275.535 233.707C275.535 233.844 275.78 234.165 275.78 234.302C276.718 232.838 276.555 230.596 277.37 229.132C277.9 231.053 277.125 233.57 276.718 235.309C276.31 237.047 276.473 239.152 275.943 240.753C276.065 240.296 276.473 239.701 276.881 239.426C276.881 240.616 276.228 241.943 276.351 243.132C276.881 242.675 277.411 241.668 277.94 241.073C277.94 242.858 276.636 244.459 276.514 246.244C276.636 246.244 276.636 246.106 276.758 246.106" fill="url(#paint6_linear_106_48)"/>
<path d="M235.426 232.105C233.551 232.151 231.758 231.51 229.923 231.373C227.763 231.19 225.929 232.059 223.891 232.242C222.219 232.379 222.872 231.053 223.565 230.092C224.38 228.902 224.991 228.033 225.603 226.615C225.603 226.889 225.643 228.902 225.48 229.04C226.54 228.307 227.437 226.249 228.252 225.196C229.557 223.412 230.739 221.078 231.391 219.02C231.146 219.889 227.315 230.961 231.391 227.85C231.391 229.314 231.799 228.902 232.695 228.307C234.244 227.301 233.633 228.902 234.815 228.49C235.997 228.079 235.915 225.333 236.853 224.51C236.69 225.425 235.304 228.902 236.975 227.941C237.791 227.484 238.524 226.157 239.054 225.333C238.28 226.34 238.076 227.987 238.076 229.268C238.076 230.321 238.198 232.151 236.853 232.151C236.894 232.059 236.894 231.968 236.894 231.876" fill="url(#paint7_linear_106_48)"/>
<path d="M257.926 262.761C257.641 264.133 257.763 267.107 256.826 268.114C255.603 269.395 254.91 267.931 254.788 266.787C254.299 262.212 254.788 257.499 254.339 252.878C253.891 248.531 253.606 244.139 253.565 239.747C253.565 237.002 252.342 232.975 253.769 230.459C254.299 229.544 254.951 228.949 255.358 227.851C255.766 226.799 256.011 225.701 256.459 224.694C256.174 225.701 255.888 227.348 256.011 228.4C256.948 227.073 257.07 225.746 257.56 224.282C258.701 226.753 257.926 229.407 258.293 232.015C258.416 233.021 258.619 233.753 258.538 234.805C258.375 236.361 258.701 237.368 258.823 238.878C258.986 240.982 258.09 243.178 257.763 245.237C257.519 246.839 257.234 248.623 256.826 250.087C257.07 248.486 257.763 246.564 258.416 245.054C258.946 243.727 259.353 242.675 259.475 241.211C259.598 240.479 259.475 238.695 260.128 238.283C260.78 239.747 260.128 241.989 259.883 243.453C259.638 245.512 259.109 247.433 258.579 249.492C258.171 251.277 258.049 253.61 257.152 255.394C257.152 254.342 257.56 253.336 257.804 252.466C257.926 253.93 257.274 255.577 257.152 257.042C257.926 256.767 258.334 255.852 258.742 255.257C258.986 256.859 257.804 258.506 257.682 260.107C259.394 259.055 260.046 254.205 260.454 252.283C259.231 255.577 258.701 259.375 257.926 262.761Z" fill="url(#paint8_linear_106_48)"/>
<path d="M179.826 276.852C180.683 277.584 182.802 278.27 183.332 278.225C182.395 278.316 181.742 278.819 180.927 279.185C180.071 279.551 179.134 279.46 178.237 279.597C176.076 279.872 173.834 279.643 171.715 279.551C172.53 277.996 174.364 277.172 174.935 275.525C174.854 275.937 174.772 277.401 174.568 277.676C175.057 277.035 175.832 276.486 176.199 275.845C176.525 275.251 176.443 274.336 176.484 273.649C176.606 272.414 177.055 271.545 177.666 270.538C177.299 271.453 176.851 272.505 176.81 273.558C176.81 274.061 177.014 274.473 176.973 274.93C176.932 275.845 176.525 276.761 176.484 277.676C177.422 277.081 178.074 276.074 178.848 275.479C178.522 275.708 178.441 276.669 178.481 277.081C179.663 276.028 179.827 278.362 180.886 277.31C181.702 276.486 181.905 274.519 182.15 273.375C182.191 274.61 181.987 276.395 181.661 277.767C182.476 277.31 182.843 275.434 183.128 274.564C183.536 273.329 184.066 271.911 184.025 270.584C184.025 272.46 183.862 274.244 183.699 276.12C183.617 276.989 183.251 278.453 183.658 279.277C183.21 279.506 182.517 279.689 182.028 279.643C181.987 279.506 182.068 279.414 182.109 279.277" fill="url(#paint9_linear_106_48)"/>
<path d="M204.528 276.944C204.324 278.682 204.079 280.695 202.327 280.833C200.615 281.016 198.78 279.323 198.087 277.676C197.191 275.571 197.68 272.643 198.087 270.447C198.373 269.028 198.821 266.054 199.799 265.002C199.392 266.466 198.617 269.257 199.025 270.767C200.981 270.904 201.919 262.806 202.164 261.021C201.919 263.812 201.756 266.786 201.511 269.715C201.267 271.636 200.329 274.153 200.452 275.891C200.981 275.297 201.389 274.29 201.756 273.512C202 274.381 201.756 275.571 201.756 276.44C203.468 274.839 203.59 271.865 204.65 269.806C204.935 272.048 204.813 274.564 204.528 276.944Z" fill="url(#paint10_linear_106_48)"/>
<path d="M107.229 219.478C106.577 220.53 105.884 221.628 105.232 222.68C104.457 223.87 103.438 225.014 103.031 226.432C102.745 227.439 102.949 228.491 102.582 229.497C101.808 231.785 100.3 234.073 98.1799 234.896C95.7749 235.766 92.9623 234.439 90.6389 233.936C87.0926 233.112 83.5463 233.295 80 232.7C82.1196 229.955 85.9105 229.68 88.0709 226.844C90.1498 224.144 90.3128 219.889 92.6363 217.281C92.6363 220.393 89.8644 222.726 89.8644 225.837C89.8644 225.746 92.2286 224.419 92.4732 224.236C93.2477 223.687 93.9406 223.092 94.5521 222.314C95.8157 220.759 96.7125 218.928 97.7315 217.19C98.9136 215.222 100.34 213.438 101.889 211.791C102.786 210.83 103.927 209.641 105.028 209C102.297 212.386 99.0359 215.405 98.3837 220.21C98.2207 221.308 97.8946 223.138 99.4028 222.314C100.259 221.857 100.992 220.85 100.87 219.752C100.626 220.347 101.319 221.582 101.359 222.314C101.441 223.55 100.503 224.327 100.3 225.425C99.9327 227.118 101.482 225.929 102.012 225.425C103.927 223.595 105.191 221.079 107.229 219.478Z" fill="url(#paint11_linear_106_48)"/>
<path d="M114.24 231.968C115.911 230.961 116.727 228.17 117.501 226.294C118.561 224.235 120.11 222.954 121.414 221.216C120.355 222.954 117.787 226.889 118.439 229.085C119.988 227.758 121.292 225.288 122.189 223.549C123.493 221.216 124.268 218.15 125.939 216.274C125.164 217.144 124.879 218.882 124.512 220.072C123.982 221.948 123.616 223.732 123.33 225.745C122.923 228.811 121.659 230.138 120.355 232.425C121.659 232.151 122.678 229.634 122.963 228.353C122.311 229.497 122.311 231.282 121.781 232.563C121.251 234.164 120.355 235.765 119.58 237.229C118.683 238.968 117.909 241.759 116.441 242.903C115.911 242.171 115.789 240.432 115.545 239.426C115.137 237.961 114.363 236.223 114.24 234.759" fill="url(#paint12_linear_106_48)"/>
<path d="M97.202 243.635C97.1613 243.726 97.5281 244.687 97.5281 244.916C97.5689 245.602 97.4058 246.38 97.2428 247.021C96.9167 248.21 96.0607 249.079 95.6938 250.223C95.327 251.321 95.9792 252.694 95.4493 253.655C94.7563 255.073 91.4138 254.89 90.2725 254.616C90.5578 253.517 91.6584 252.877 92.1475 251.87C92.4329 251.321 93.5742 249.537 93.6557 249.034C93.5334 249.903 92.8812 250.498 92.8812 251.504C93.6557 251.047 94.5525 249.628 95.0824 248.713C96.1422 247.112 96.5498 245.511 97.202 243.635Z" fill="url(#paint13_linear_106_48)"/>
<path d="M157 236.178C155.736 234.165 154.513 232.152 152.149 231.74C151.293 231.603 146.279 230.688 145.872 231.328C147.257 229.269 151.415 227.76 151.415 224.648C151.293 225.792 150.763 226.982 150.641 228.126C151.293 227.805 152.19 227.211 152.597 226.524C152.842 226.113 152.964 225.655 153.209 225.243C153.494 224.74 153.902 224.328 154.269 223.962C154.839 223.413 155.451 222.956 156.021 222.498C155.614 222.818 155.125 223.276 154.921 223.779C154.798 224.054 154.432 224.877 154.88 224.969C155.369 225.06 155.777 224.237 156.062 223.916C156.429 223.505 156.755 222.91 156.796 222.315C156.796 222.635 156.918 223.001 156.877 223.367C156.837 223.688 156.837 224.099 156.714 224.374C156.307 225.243 155.532 225.746 155.247 226.707C155.125 227.211 155.084 227.668 155.369 228.126C155.491 228.354 155.818 228.583 156.062 228.583C156.307 228.583 156.388 228.354 156.51 228.171C156.877 227.668 157.244 227.211 157.57 226.662C158.1 225.838 158.508 224.786 159.16 224.054C158.915 225.06 156.714 229.59 159.038 228.263C160.546 227.394 160.709 223.779 161.28 222.178C160.75 225.197 160.831 228.675 160.709 231.74C160.668 232.564 160.098 233.159 161.239 233.067C162.013 233.021 162.951 231.466 163.155 230.779C162.625 231.786 161.647 233.982 161.769 235.263C163.481 234.028 164.704 231.328 164.459 229.041C163.848 230.276 163.97 232.655 163.807 234.165C163.562 236.087 163.359 238.1 162.91 239.976C162.38 242.08 161.932 246.244 160.261 247.525C159.771 245.924 159.812 244.002 159.445 242.309C158.997 240.067 158.182 238.1 157 236.178Z" fill="url(#paint14_linear_106_48)"/>
<path d="M94.1854 353.747L90.8444 360.679V384.006H80V308.118H90.8444V341.149L105.03 308.118H115.874L100.758 341.933L115.874 384.006H104.756L94.1854 353.747Z" fill="white"/>
<path d="M121.394 308.118H131.052V384.006H121.394V308.118Z" fill="white"/>
<path d="M136.571 308.118H169.685V318.968H158.485V384.006H147.771V318.968H136.571V308.118Z" fill="white"/>
<path d="M171.065 308.118H204.18V318.968H192.979V384.006H182.265V318.968H171.065V308.118Z" fill="white"/>
<path d="M220.323 340.099H234.918V350.941H220.323V373.165H238.675V384.006H209.699V308.118H238.675V318.959H220.323V340.099Z" fill="white"/>
<path d="M255.35 329.034V384.006H245.573V308.118H259.25L270.4 353.506V308.118H280.068V384.006H268.917L255.35 329.034Z" fill="white"/>
<path d="M302.2 306.57C313.033 306.57 318.589 313.628 318.589 325.964V328.419H308.094V325.227C308.094 319.704 306.073 317.617 302.537 317.617C299.001 317.617 296.981 319.704 296.981 325.227C296.981 341.122 318.702 344.068 318.702 366.162C318.702 378.498 313.033 385.555 302.144 385.555C291.256 385.555 285.587 378.498 285.587 366.162V361.436H296.083V366.96C296.083 372.483 298.328 374.447 301.864 374.447C305.4 374.447 307.645 372.483 307.645 366.96C307.645 351.065 285.924 348.119 285.924 326.025C285.868 313.628 291.424 306.57 302.2 306.57Z" fill="white"/>
<path d="M121.17 219.112C120.884 217.648 121.17 216.092 121.74 214.765C122.026 214.079 122.392 213.438 122.882 212.935C123.289 212.477 123.86 212.203 124.308 211.837C123.085 213.164 122.882 214.17 122.392 215.909C122.107 216.961 121.17 217.968 121.17 219.112Z" fill="url(#paint15_linear_106_48)"/>
<path d="M80.0415 286.598H101.89V278.454H87.8271V261.525H98.7513V253.381H87.8271V237.642H101.89V229.498H80.0415V286.598Z" fill="url(#paint16_linear_106_48)"/>
<path d="M133.48 229.498H126.061L119.865 250.545L113.791 229.498H105.517L113.873 257.225L104.905 286.598H112.406L119.05 263.996L125.612 286.598H134.05L125.083 257.225L133.48 229.498Z" fill="url(#paint17_linear_106_48)"/>
<path d="M149.866 229.498H138.29V286.598H146.075V265.048H149.866C157.896 265.048 161.687 260.016 161.687 250.865V243.453C161.687 234.302 157.855 229.498 149.866 229.498ZM153.861 251.46C153.861 255.532 152.393 256.904 149.866 256.904H146.075V237.688H149.866C152.434 237.688 153.861 238.832 153.861 242.904V251.46Z" fill="url(#paint18_linear_106_48)"/>
<path d="M173.631 229.498H165.315V286.598H186.634V278.454H173.631V229.498Z" fill="url(#paint19_linear_106_48)"/>
<path d="M201.716 228.674C193.849 228.674 189.772 233.89 189.772 243.04V272.734C189.772 281.885 193.849 287.101 201.716 287.101C209.583 287.101 213.659 281.885 213.659 272.734V243.04C213.659 233.89 209.583 228.674 201.716 228.674ZM205.873 273.329C205.873 277.401 204.243 278.957 201.716 278.957C199.148 278.957 197.558 277.401 197.558 273.329V242.446C197.558 238.374 199.189 236.818 201.716 236.818C204.284 236.818 205.873 238.374 205.873 242.446V273.329Z" fill="url(#paint20_linear_106_48)"/>
<path d="M231.757 229.498H218.876V286.598H231.757C239.787 286.598 243.864 281.474 243.864 272.323V243.453C243.823 234.302 239.747 229.498 231.757 229.498ZM235.507 272.735C235.507 276.807 234.121 278.408 231.594 278.408H227.192V237.642H231.594C234.162 237.642 235.507 238.969 235.507 243.041V272.735Z" fill="url(#paint21_linear_106_48)"/>
<path d="M256.826 229.498H249.04V286.598H256.826V229.498Z" fill="url(#paint22_linear_106_48)"/>
<path d="M280.753 263.539L272.601 229.498H262.573V286.598H269.829V245.054L279.734 286.598H288.05V229.498H280.753V263.539Z" fill="url(#paint23_linear_106_48)"/>
<path d="M317.154 248.714V243.04C317.154 233.89 313.077 228.674 305.21 228.674C297.343 228.674 293.267 233.89 293.267 243.04V272.734C293.267 281.885 297.343 287.101 305.21 287.101C313.077 287.101 317.154 281.885 317.154 272.734V254.524H305.7V262.669H309.327V273.283C309.327 277.355 307.697 278.819 305.17 278.819C302.602 278.819 301.012 277.355 301.012 273.283V242.446C301.012 238.374 302.642 236.818 305.17 236.818C307.738 236.818 309.327 238.374 309.327 242.446V248.714H317.154Z" fill="url(#paint24_linear_106_48)"/>
<path d="M320.578 252.787C320.415 253.702 319.6 254.068 319.355 254.937C319.396 254.251 319.803 253.656 319.966 253.015C320.129 252.329 320.17 251.506 320.007 250.819C320.415 251.277 320.7 252.146 320.578 252.787Z" fill="url(#paint25_linear_106_48)"/>
<path d="M262.288 218.426C262.125 218.609 262.003 220.53 261.881 220.942C261.677 221.72 261.351 222.406 261.066 223.184C260.617 224.511 260.495 225.884 260.169 227.256C260.087 225.701 260.21 223.138 260.78 221.72C261.147 220.805 261.677 219.112 262.288 218.426Z" fill="url(#paint26_linear_106_48)"/>
<path d="M233.388 225.381C232.981 222.91 234.937 220.531 236.282 218.884C235.956 220.028 235.916 221.4 235.345 222.453C234.693 223.551 233.348 223.779 233.388 225.381Z" fill="url(#paint27_linear_106_48)"/>
<path d="M181.987 269.76C181.579 270.813 180.275 272.185 180.56 273.466C180.316 272.139 180.519 270.675 180.968 269.394C181.131 268.891 181.375 268.388 181.62 267.93C181.865 267.473 182.15 267.061 182.272 266.512C182.435 266.649 182.394 267.015 182.313 267.198C182.272 267.427 182.231 267.61 182.231 267.884C182.231 268.525 182.231 269.211 181.987 269.76Z" fill="url(#paint28_linear_106_48)"/>
<path d="M177.952 269.487C178.033 269.075 178.726 268.892 178.808 268.16C178.848 267.566 178.522 266.834 178.196 266.376C178.155 267.428 178.196 268.481 177.952 269.487Z" fill="url(#paint29_linear_106_48)"/>
<path d="M161.116 218.518C161.279 218.563 160.994 218.975 160.912 219.112C160.749 219.57 160.749 220.027 160.586 220.485C160.383 221.126 159.486 221.583 159.69 222.361C159.69 221.949 159.73 221.629 159.853 221.217C159.975 220.805 159.975 220.348 160.097 219.936C160.26 219.341 160.586 218.746 161.157 218.563" fill="url(#paint30_linear_106_48)"/>
<path d="M308.104 217.557C307.86 218.197 307.901 218.975 307.778 219.661C307.697 220.073 307.411 220.393 307.289 220.805C307.126 221.217 307.004 221.629 307.004 222.086C306.882 221.583 306.882 220.942 307.004 220.439C307.085 220.027 307.126 219.57 307.167 219.158C307.289 218.38 307.738 217.831 308.227 217.282" fill="url(#paint31_linear_106_48)"/>
<path d="M312.67 225.38C312.914 225.7 312.71 226.112 312.629 226.432C312.507 226.935 312.588 227.438 312.71 227.896C312.588 227.347 312.914 227.027 313.118 226.615C313.281 226.295 313.322 225.563 313.24 225.196C313.077 224.647 312.629 225.563 312.547 225.837C312.303 226.569 312.547 227.21 312.507 227.942C312.507 227.713 312.547 227.072 312.792 226.889C312.833 227.118 312.833 227.347 312.914 227.576C312.996 227.301 312.914 226.981 312.996 226.706C313.077 226.386 313.322 226.066 313.485 225.791C313.729 225.38 313.77 224.968 313.811 224.51C313.852 224.144 313.933 223.778 313.892 223.412C313.892 223.687 313.811 223.915 313.689 224.144C313.526 224.373 313.24 224.602 313.118 224.876C313.077 225.059 313.159 225.105 313.159 225.288C313.159 225.517 312.996 225.654 312.996 225.883C312.873 225.654 312.792 225.517 312.67 225.38C312.67 225.334 312.71 225.38 312.71 225.38Z" fill="url(#paint32_linear_106_48)"/>
<g filter="url(#filter0_i_106_48)">
<path d="M241.501 159.334C240.623 155.738 239.53 152.262 238.707 148.665C237.5 143.569 237.849 136.305 234.757 132.118C233.292 130.145 232.045 128.471 230.956 126.135C229.977 123.979 228.997 121.763 227.371 120.091C227.327 122.552 230.161 129.62 228.873 131.547C228.176 132.631 226.231 131.921 225.367 131.685C223.477 131.214 221.641 130.983 219.699 130.933C217.594 130.883 215.063 132.156 213.011 131.746C211.284 131.395 208.953 128.766 207.492 127.632C204.894 125.605 202.291 122.256 199.48 120.95C200.68 124.125 202.904 127.115 204.803 129.807C206.485 132.139 206.056 132.861 204.717 135.389C203.753 137.254 203.059 139.179 202.474 141.222C202.208 142.244 202 144.166 201.302 145.009C200.55 145.853 198.608 145.923 197.475 146.109C190.898 147.522 184.322 148.995 178.238 152.327C171.993 155.779 165.435 162.114 163.793 169.865C163.423 171.667 163.538 173.587 163.114 175.39C163.008 175.811 162.901 176.231 162.795 176.652C158.598 179.554 154.405 183.416 154.428 189.298C154.2 199.863 164.859 207.372 173.173 208.652C177.006 209.293 183.373 209.441 186.49 206.124C189.015 203.471 184.694 202.352 182.913 202.181C179.35 201.538 175.79 202.036 172.228 201.574C169.258 201.108 166.448 199.982 163.797 198.134C161.417 196.526 158.44 194.08 158.749 190.417C158.9 187.655 160.509 185.126 162.226 182.837C162.458 186.857 163.553 190.873 165.885 194.043C168.164 197.152 173.451 197.066 176.742 197.11C178.253 197.102 182.032 197.564 182.617 195.46C182.989 194.138 181.635 192.884 181.308 191.865C182.601 191.559 184.172 193.111 185.468 193.405C187.791 193.994 190.329 194.641 192.758 194.869C195.997 195.213 199.663 194.475 202.794 194.999C201.407 199.028 215.286 202.32 212.29 194.952C214.882 195.54 217.632 195.226 220.223 195.453C221.141 195.508 228.37 195.472 228.583 194.571C228.21 195.833 226.107 196.084 226.762 198.001C227.363 199.859 230.06 199.846 231.463 199.719C233.836 199.587 236.21 199.635 238.637 199.443C240.849 199.312 243.115 199.361 244.185 197.074C245.363 194.608 245.617 190.705 245.822 188.003C246.594 178.516 243.749 168.446 241.501 159.334ZM211.668 146.698C205.239 144.75 208.43 133.03 214.374 135.161C216.049 135.753 216.974 137.669 217.358 139.468C218.293 143.844 216.097 147.997 211.668 146.698ZM227.101 147.402C220.673 145.453 223.864 133.733 229.807 135.804C231.482 136.396 232.407 138.312 232.792 140.111C233.727 144.548 231.477 148.701 227.101 147.402Z" fill="url(#paint33_linear_106_48)"/>
</g>
</g>
<defs>
<filter id="filter0_i_106_48" x="154.424" y="120.091" width="91.5269" height="88.9277" filterUnits="userSpaceOnUse" color-interpolation-filters="sRGB">
<feFlood flood-opacity="0" result="BackgroundImageFix"/>
<feBlend mode="normal" in="SourceGraphic" in2="BackgroundImageFix" result="shape"/>
<feColorMatrix in="SourceAlpha" type="matrix" values="0 0 0 0 0 0 0 0 0 0 0 0 0 0 0 0 0 0 127 0" result="hardAlpha"/>
<feOffset/>
<feGaussianBlur stdDeviation="2.65"/>
<feComposite in2="hardAlpha" operator="arithmetic" k2="-1" k3="1"/>
<feColorMatrix type="matrix" values="0 0 0 0 0 0 0 0 0 0 0 0 0 0 0 0 0 0 0.25 0"/>
<feBlend mode="normal" in2="shape" result="effect1_innerShadow_106_48"/>
</filter>
<radialGradient id="paint0_radial_106_48" cx="0" cy="0" r="1" gradientUnits="userSpaceOnUse" gradientTransform="translate(200 279) rotate(90) scale(279 200)">
<stop stop-opacity="0"/>
<stop offset="1"/>
</radialGradient>
<linearGradient id="paint1_linear_106_48" x1="100.786" y1="270.721" x2="100.786" y2="283.535" gradientUnits="userSpaceOnUse">
<stop stop-color="#FFDD15"/>
<stop offset="1" stop-color="#ED1C24"/>
</linearGradient>
<linearGradient id="paint2_linear_106_48" x1="304.915" y1="268.205" x2="304.915" y2="279.33" gradientUnits="userSpaceOnUse">
<stop stop-color="#FFDD15"/>
<stop offset="1" stop-color="#ED1C24"/>
</linearGradient>
<linearGradient id="paint3_linear_106_48" x1="317.07" y1="250.315" x2="317.07" y2="280.833" gradientUnits="userSpaceOnUse">
<stop stop-color="#FFDD15"/>
<stop offset="1" stop-color="#ED1C24"/>
</linearGradient>
<linearGradient id="paint4_linear_106_48" x1="16261.7" y1="733.287" x2="16607.2" y2="1220.08" gradientUnits="userSpaceOnUse">
<stop stop-color="#ED1C24"/>
<stop offset="1" stop-color="#FCEE21"/>
</linearGradient>
<linearGradient id="paint5_linear_106_48" x1="270.92" y1="268.938" x2="270.92" y2="285.958" gradientUnits="userSpaceOnUse">
<stop stop-color="#FFDD15"/>
<stop offset="1" stop-color="#ED1C24"/>
</linearGradient>
<linearGradient id="paint6_linear_106_48" x1="275.926" y1="229.132" x2="275.926" y2="246.701" gradientUnits="userSpaceOnUse">
<stop stop-color="#FFDD15"/>
<stop offset="1" stop-color="#ED1C24"/>
</linearGradient>
<linearGradient id="paint7_linear_106_48" x1="230.946" y1="219.02" x2="230.946" y2="232.252" gradientUnits="userSpaceOnUse">
<stop stop-color="#FFDD15"/>
<stop offset="1" stop-color="#ED1C24"/>
</linearGradient>
<linearGradient id="paint8_linear_106_48" x1="256.765" y1="224.282" x2="256.765" y2="268.612" gradientUnits="userSpaceOnUse">
<stop stop-color="#FFDD15"/>
<stop offset="1" stop-color="#ED1C24"/>
</linearGradient>
<linearGradient id="paint9_linear_106_48" x1="177.871" y1="270.538" x2="177.871" y2="279.728" gradientUnits="userSpaceOnUse">
<stop stop-color="#FFDD15"/>
<stop offset="1" stop-color="#ED1C24"/>
</linearGradient>
<linearGradient id="paint10_linear_106_48" x1="201.197" y1="261.021" x2="201.197" y2="280.846" gradientUnits="userSpaceOnUse">
<stop stop-color="#FFDD15"/>
<stop offset="1" stop-color="#ED1C24"/>
</linearGradient>
<linearGradient id="paint11_linear_106_48" x1="93.6145" y1="209" x2="93.6145" y2="235.185" gradientUnits="userSpaceOnUse">
<stop stop-color="#FFDD15"/>
<stop offset="1" stop-color="#ED1C24"/>
</linearGradient>
<linearGradient id="paint12_linear_106_48" x1="120.09" y1="216.274" x2="120.09" y2="242.903" gradientUnits="userSpaceOnUse">
<stop stop-color="#FFDD15"/>
<stop offset="1" stop-color="#ED1C24"/>
</linearGradient>
<linearGradient id="paint13_linear_106_48" x1="93.9035" y1="243.635" x2="93.9035" y2="254.806" gradientUnits="userSpaceOnUse">
<stop stop-color="#FFDD15"/>
<stop offset="1" stop-color="#ED1C24"/>
</linearGradient>
<linearGradient id="paint14_linear_106_48" x1="155.181" y1="222.178" x2="155.181" y2="247.525" gradientUnits="userSpaceOnUse">
<stop stop-color="#FFDD15"/>
<stop offset="1" stop-color="#ED1C24"/>
</linearGradient>
<linearGradient id="paint15_linear_106_48" x1="122.683" y1="211.837" x2="122.683" y2="219.112" gradientUnits="userSpaceOnUse">
<stop stop-color="#FFDD15"/>
<stop offset="1" stop-color="#ED1C24"/>
</linearGradient>
<linearGradient id="paint16_linear_106_48" x1="90.9657" y1="229.498" x2="90.9657" y2="286.598" gradientUnits="userSpaceOnUse">
<stop stop-color="#FFDD15"/>
<stop offset="1" stop-color="#ED1C24"/>
</linearGradient>
<linearGradient id="paint17_linear_106_48" x1="119.478" y1="229.498" x2="119.478" y2="286.598" gradientUnits="userSpaceOnUse">
<stop stop-color="#FFDD15"/>
<stop offset="1" stop-color="#ED1C24"/>
</linearGradient>
<linearGradient id="paint18_linear_106_48" x1="149.988" y1="229.498" x2="149.988" y2="286.598" gradientUnits="userSpaceOnUse">
<stop stop-color="#FFDD15"/>
<stop offset="1" stop-color="#ED1C24"/>
</linearGradient>
<linearGradient id="paint19_linear_106_48" x1="175.975" y1="229.498" x2="175.975" y2="286.598" gradientUnits="userSpaceOnUse">
<stop stop-color="#FFDD15"/>
<stop offset="1" stop-color="#ED1C24"/>
</linearGradient>
<linearGradient id="paint20_linear_106_48" x1="201.716" y1="228.674" x2="201.716" y2="287.101" gradientUnits="userSpaceOnUse">
<stop stop-color="#FFDD15"/>
<stop offset="1" stop-color="#ED1C24"/>
</linearGradient>
<linearGradient id="paint21_linear_106_48" x1="231.37" y1="229.498" x2="231.37" y2="286.598" gradientUnits="userSpaceOnUse">
<stop stop-color="#FFDD15"/>
<stop offset="1" stop-color="#ED1C24"/>
</linearGradient>
<linearGradient id="paint22_linear_106_48" x1="252.933" y1="229.498" x2="252.933" y2="286.598" gradientUnits="userSpaceOnUse">
<stop stop-color="#FFDD15"/>
<stop offset="1" stop-color="#ED1C24"/>
</linearGradient>
<linearGradient id="paint23_linear_106_48" x1="275.311" y1="229.498" x2="275.311" y2="286.598" gradientUnits="userSpaceOnUse">
<stop stop-color="#FFDD15"/>
<stop offset="1" stop-color="#ED1C24"/>
</linearGradient>
<linearGradient id="paint24_linear_106_48" x1="305.21" y1="228.674" x2="305.21" y2="287.101" gradientUnits="userSpaceOnUse">
<stop stop-color="#FFDD15"/>
<stop offset="1" stop-color="#ED1C24"/>
</linearGradient>
<linearGradient id="paint25_linear_106_48" x1="319.981" y1="250.819" x2="319.981" y2="254.937" gradientUnits="userSpaceOnUse">
<stop stop-color="#FFDD15"/>
<stop offset="1" stop-color="#ED1C24"/>
</linearGradient>
<linearGradient id="paint26_linear_106_48" x1="261.217" y1="218.426" x2="261.217" y2="227.256" gradientUnits="userSpaceOnUse">
<stop stop-color="#FFDD15"/>
<stop offset="1" stop-color="#ED1C24"/>
</linearGradient>
<linearGradient id="paint27_linear_106_48" x1="234.808" y1="218.884" x2="234.808" y2="225.381" gradientUnits="userSpaceOnUse">
<stop stop-color="#FFDD15"/>
<stop offset="1" stop-color="#ED1C24"/>
</linearGradient>
<linearGradient id="paint28_linear_106_48" x1="181.42" y1="266.512" x2="181.42" y2="273.466" gradientUnits="userSpaceOnUse">
<stop stop-color="#FFDD15"/>
<stop offset="1" stop-color="#ED1C24"/>
</linearGradient>
<linearGradient id="paint29_linear_106_48" x1="178.381" y1="266.376" x2="178.381" y2="269.487" gradientUnits="userSpaceOnUse">
<stop stop-color="#FFDD15"/>
<stop offset="1" stop-color="#ED1C24"/>
</linearGradient>
<linearGradient id="paint30_linear_106_48" x1="160.413" y1="218.518" x2="160.413" y2="222.361" gradientUnits="userSpaceOnUse">
<stop stop-color="#FFDD15"/>
<stop offset="1" stop-color="#ED1C24"/>
</linearGradient>
<linearGradient id="paint31_linear_106_48" x1="307.569" y1="217.282" x2="307.569" y2="222.086" gradientUnits="userSpaceOnUse">
<stop stop-color="#FFDD15"/>
<stop offset="1" stop-color="#ED1C24"/>
</linearGradient>
<linearGradient id="paint32_linear_106_48" x1="313.17" y1="223.412" x2="313.17" y2="227.942" gradientUnits="userSpaceOnUse">
<stop stop-color="#FFDD15"/>
<stop offset="1" stop-color="#ED1C24"/>
</linearGradient>
<linearGradient id="paint33_linear_106_48" x1="199.924" y1="120.227" x2="200.365" y2="208.905" gradientUnits="userSpaceOnUse">
<stop stop-color="#FFDD15"/>
<stop offset="1" stop-color="#ED1C24"/>
</linearGradient>
<clipPath id="clip0_106_48">
<rect width="400" height="558" fill="white"/>
</clipPath>
</defs>
</svg>
