<svg width="383" height="476" viewBox="0 0 383 476" fill="none" xmlns="http://www.w3.org/2000/svg">
<g clip-path="url(#clip0_91_2)">
<rect width="383" height="476" rx="26" fill="#B0141F"/>
<rect width="383" height="476" rx="26" fill="url(#paint0_radial_91_2)" fill-opacity="0.4"/>
<path d="M96.6856 256.579C95.9831 256.657 95.905 255.057 95.2806 254.471C94.578 253.769 93.6023 253.808 92.7046 253.691C94.3829 252.715 94.4609 250.334 95.2806 248.734C95.2806 249.514 94.9293 250.334 95.2806 251.036C96.2563 250.022 97.3491 247.016 97.3882 245.65C97.3882 246.236 96.7637 248.695 97.4662 248.851C98.3249 249.046 98.8713 246.275 99.0664 245.767C99.2225 247.758 98.7932 249.866 98.6371 251.7C98.481 252.676 98.3639 253.534 97.9346 254.393C97.9346 254.666 97.232 255.954 97.5052 255.525" fill="url(#paint1_linear_91_2)"/>
<path d="M294.996 252.169C294.254 253.496 293.396 252.755 292.186 252.833C291.6 252.872 291.015 253.028 290.39 252.989C289.649 252.911 288.79 252.638 288.322 252.013C287.854 251.428 287.58 250.569 287.463 249.867C287.346 249.008 287.775 248.579 288.01 247.837C288.205 247.213 288.517 246.666 288.751 245.964C288.673 246.471 287.814 248.813 288.751 248.579C289.376 248.462 289.571 246.783 289.688 246.276C289.883 245.73 290.078 244.832 290.742 244.598C290.195 245.964 289.61 247.447 289.571 248.93C289.571 249.476 289.766 250.218 290.39 249.554C290.781 249.125 290.898 248.579 291.249 248.11C291.132 248.345 290.82 249.047 291.054 249.359C291.444 249.789 291.795 248.93 291.874 248.618C292.108 247.681 291.874 246.198 291.444 245.339C291.756 246.276 292.186 247.096 292.303 248.071C292.42 248.813 291.991 249.437 292.069 250.14C292.771 250.14 292.771 248.657 292.81 248.149C292.927 247.213 293.201 246.393 293.513 245.495C293.396 245.886 293.279 246.471 293.396 246.783C294.137 246.276 293.903 244.246 293.903 243.505C293.825 244.481 294.293 245.612 294.45 246.666C294.528 247.096 294.645 247.603 294.528 248.032C294.45 248.345 294.215 248.657 294.215 249.008C294.723 248.462 294.723 247.408 295.269 246.939C295.035 248.11 295.152 249.32 295.191 250.491C295.23 251.038 295.308 251.623 294.996 252.169Z" fill="url(#paint2_linear_91_2)"/>
<path d="M303.583 250.569C303.583 250.53 303.583 250.53 303.583 250.569C303.895 249.867 304.168 249.125 304.324 248.383C304.48 247.759 304.715 247.213 304.91 246.588C304.793 246.783 304.246 247.642 304.012 247.681C303.739 247.72 303.934 247.135 303.934 246.9C303.934 246.276 303.817 245.651 304.051 245.027C304.324 244.324 305.027 243.895 305.222 243.114C305.339 242.529 305.105 241.983 305.183 241.397C305.3 241.709 305.222 242.646 304.675 242.49C303.934 242.295 304.871 240.656 305.027 240.304C305.456 239.29 305.846 238.041 305.651 236.948C305.495 236.245 305.027 235.543 304.988 234.84C305.261 235.738 305.456 237.377 304.91 238.236C304.676 238.587 304.48 238.626 304.48 238.158C304.48 237.845 304.636 237.416 304.793 237.143C304.246 237.455 304.129 238.08 304.012 238.665C303.934 239.055 303.934 239.524 303.622 239.836C303.349 240.109 303.036 240.304 302.763 240.578C302.607 240.031 302.607 239.602 302.607 239.055C302.607 238.899 302.763 237.924 302.763 238.509C302.763 238.041 302.802 237.611 302.958 237.182C303.114 236.792 303.075 236.479 303.153 236.05C303.231 235.621 303.505 235.23 303.622 234.801C303.739 234.372 303.7 233.903 303.7 233.435C303.7 232.967 303.895 232.381 303.856 231.952C303.7 232.264 303.466 233.318 303.114 233.318C302.997 233.045 303.114 232.576 303.114 232.303C303.114 231.952 303.114 231.679 303.192 231.367C303.427 230.313 303.583 229.22 304.09 228.244C303.661 228.556 303.348 229.22 303.192 229.727C303.075 230.118 303.036 230.859 302.607 231.093C302.607 230.742 302.724 230.352 302.802 230C302.88 229.649 303.114 229.181 303.036 228.83C302.685 229.493 302.724 230.43 302.178 230.976C301.787 231.406 301.592 230.898 301.67 230.508C301.748 230.079 301.904 229.688 302.021 229.298C301.748 229.727 301.436 230.157 301.241 230.664C301.124 230.937 301.124 231.249 301.046 231.523C300.929 231.835 300.773 231.874 300.616 232.069C300.265 232.498 300.265 233.279 300.304 233.864C300.382 235.152 300.851 236.401 301.007 237.689C301.28 240.109 301.046 242.646 301.202 245.105C301.319 246.9 301.787 248.618 301.865 250.374C301.904 251.037 301.904 251.701 301.709 252.325C301.514 252.95 301.475 253.652 301.28 254.277C302.1 252.989 302.997 251.896 303.583 250.569Z" fill="url(#paint3_linear_91_2)"/>
<path d="M300.811 212.125C300.85 212.554 300.967 212.983 300.928 213.413C298.781 212.359 296.752 212.086 294.371 212.164C291.756 212.242 288.712 212.398 286.175 213.257C284.887 213.686 283.872 214.584 282.701 215.052C283.521 213.647 284.223 212.047 285.16 210.72C285.902 209.666 286.955 208.924 287.463 207.636C287.19 208.339 286.76 209.588 286.76 210.29C286.916 210.134 287.19 209.861 287.463 209.744C287.736 209.471 287.892 209.198 288.165 208.885C288.439 208.729 288.712 209.041 289.024 208.729C290.273 207.871 290.702 205.646 291.561 204.397C291.288 205.802 291.015 207.207 290.702 208.612C290.429 210.447 290.429 209.861 291.951 209.315C291.951 211.149 293.786 208.768 293.903 208.339C294.605 206.934 295.035 205.529 296.01 204.436C296.01 205.295 295.659 206.153 295.425 206.973C295.308 207.324 294.839 208.69 295.737 208.417C296.479 208.183 296.479 207.129 296.596 206.544C296.752 205.646 297.65 205.099 297.689 204.202C297.728 203.655 297.728 203.07 297.767 202.524C297.767 202.172 297.806 201.782 297.689 201.47C297.65 201.782 297.845 202.172 297.962 202.484C298.079 202.875 298.274 203.304 298.313 203.733C298.352 204.124 298.352 204.631 298.235 204.982C298.118 205.412 297.884 205.802 297.689 206.231C297.415 206.895 297.298 207.675 297.337 208.378C297.376 209.041 297.572 210.525 298.352 210.72C298.703 210.837 298.977 210.564 299.172 210.29C299.445 209.861 299.64 209.393 299.991 209.002C299.835 209.705 299.445 210.525 299.718 211.11C300.694 210.408 301.553 208.885 302.255 207.871C302.021 209.081 301.084 210.134 300.889 211.344C300.616 212.944 300.889 214.115 300.147 215.716" fill="url(#paint4_linear_91_2)"/>
<path d="M260.572 254.59C260.689 253.575 260.455 252.443 260.572 251.428C260.689 250.687 260.962 249.906 261.196 249.165C260.298 250.179 260.181 251.546 259.049 252.443C259.284 251.194 259.947 250.179 260.298 249.048C260.533 247.916 260.689 246.784 261.04 245.769C260.65 246.667 260.298 248.54 259.284 249.282C259.167 248.54 259.791 247.252 260.025 246.511C260.142 245.769 260.416 244.871 260.533 244.13C260.533 245.652 259.518 247.135 258.659 248.267C257.371 249.906 257.176 250.258 256.903 252.365C256.669 254.434 256.005 256.658 256.786 258.649C256.708 258.454 258.542 257.4 258.776 257.205C259.635 256.58 260.337 255.644 260.572 254.59Z" fill="url(#paint5_linear_91_2)"/>
<path d="M263.616 225.161C262.328 224.264 262.445 221.024 261.859 219.58C261.118 217.746 262.757 215.872 263.225 214.077C263.225 214.194 263.459 214.467 263.459 214.584C264.357 213.335 264.201 211.423 264.982 210.174C265.489 211.813 264.747 213.96 264.357 215.443C263.967 216.926 264.123 218.721 263.616 220.087C263.733 219.697 264.123 219.19 264.513 218.956C264.513 219.97 263.889 221.102 264.006 222.117C264.513 221.727 265.021 220.868 265.528 220.361C265.528 221.883 264.279 223.249 264.162 224.771C264.279 224.771 264.279 224.654 264.396 224.654" fill="url(#paint6_linear_91_2)"/>
<path d="M224.82 212.709C223.025 212.748 221.308 212.202 219.551 212.085C217.483 211.929 215.727 212.67 213.775 212.826C212.175 212.944 212.799 211.812 213.463 210.992C214.243 209.977 214.829 209.236 215.414 208.026C215.414 208.26 215.453 209.977 215.297 210.094C216.312 209.47 217.171 207.714 217.951 206.816C219.2 205.294 220.332 203.303 220.957 201.547C220.722 202.288 217.054 211.734 220.957 209.08C220.957 210.329 221.347 209.977 222.205 209.47C223.689 208.611 223.103 209.977 224.235 209.626C225.367 209.275 225.289 206.933 226.187 206.23C226.03 207.011 224.703 209.977 226.304 209.158C227.084 208.767 227.787 207.636 228.294 206.933C227.553 207.792 227.357 209.197 227.357 210.29C227.357 211.187 227.475 212.748 226.187 212.748C226.226 212.67 226.226 212.592 226.226 212.514" fill="url(#paint7_linear_91_2)"/>
<path d="M246.365 238.86C246.092 240.031 246.209 242.568 245.311 243.427C244.14 244.519 243.477 243.27 243.36 242.295C242.891 238.392 243.36 234.372 242.93 230.43C242.501 226.722 242.228 222.975 242.189 219.228C242.189 216.886 241.018 213.452 242.384 211.305C242.891 210.525 243.516 210.017 243.906 209.08C244.296 208.183 244.531 207.246 244.96 206.387C244.687 207.246 244.413 208.651 244.531 209.549C245.428 208.417 245.545 207.285 246.014 206.036C247.106 208.144 246.365 210.407 246.716 212.632C246.833 213.491 247.028 214.115 246.95 215.013C246.794 216.34 247.106 217.199 247.224 218.487C247.38 220.282 246.521 222.155 246.209 223.912C245.975 225.278 245.701 226.8 245.311 228.049C245.545 226.683 246.209 225.044 246.833 223.756C247.341 222.624 247.731 221.726 247.848 220.477C247.965 219.853 247.848 218.33 248.473 217.979C249.097 219.228 248.473 221.141 248.238 222.39C248.004 224.146 247.497 225.785 246.989 227.542C246.599 229.064 246.482 231.054 245.623 232.576C245.623 231.679 246.014 230.82 246.248 230.078C246.365 231.327 245.74 232.732 245.623 233.981C246.365 233.747 246.755 232.967 247.146 232.459C247.38 233.825 246.248 235.23 246.131 236.596C247.77 235.699 248.394 231.562 248.785 229.922C247.614 232.732 247.106 235.972 246.365 238.86Z" fill="url(#paint8_linear_91_2)"/>
<path d="M171.584 250.88C172.403 251.505 174.433 252.09 174.94 252.051C174.043 252.129 173.418 252.559 172.638 252.871C171.818 253.183 170.92 253.105 170.062 253.222C167.993 253.456 165.846 253.261 163.817 253.183C164.597 251.856 166.354 251.153 166.9 249.748C166.822 250.1 166.744 251.349 166.549 251.583C167.017 251.036 167.759 250.568 168.11 250.022C168.422 249.514 168.344 248.734 168.383 248.148C168.5 247.094 168.93 246.353 169.515 245.494C169.164 246.275 168.735 247.172 168.696 248.07C168.696 248.499 168.891 248.851 168.852 249.241C168.813 250.022 168.422 250.802 168.383 251.583C169.281 251.075 169.906 250.217 170.647 249.709C170.335 249.905 170.257 250.724 170.296 251.075C171.428 250.178 171.584 252.168 172.599 251.271C173.379 250.568 173.574 248.89 173.808 247.914C173.848 248.968 173.652 250.49 173.34 251.661C174.121 251.271 174.472 249.67 174.745 248.929C175.136 247.875 175.643 246.665 175.604 245.533C175.604 247.133 175.448 248.656 175.292 250.256C175.214 250.997 174.862 252.246 175.253 252.949C174.823 253.144 174.16 253.3 173.691 253.261C173.652 253.144 173.73 253.066 173.769 252.949" fill="url(#paint9_linear_91_2)"/>
<path d="M195.235 250.959C195.04 252.442 194.806 254.16 193.128 254.277C191.489 254.433 189.732 252.989 189.069 251.584C188.21 249.788 188.678 247.291 189.069 245.417C189.342 244.207 189.771 241.67 190.708 240.773C190.318 242.021 189.576 244.402 189.966 245.69C191.84 245.807 192.738 238.899 192.972 237.377C192.738 239.758 192.581 242.295 192.347 244.793C192.113 246.432 191.215 248.578 191.332 250.062C191.84 249.554 192.23 248.696 192.581 248.032C192.816 248.774 192.581 249.788 192.581 250.53C194.221 249.164 194.338 246.627 195.353 244.871C195.626 246.783 195.509 248.93 195.235 250.959Z" fill="url(#paint10_linear_91_2)"/>
<path d="M102.072 201.938C101.447 202.835 100.784 203.772 100.159 204.67C99.4178 205.685 98.4421 206.66 98.0518 207.87C97.7786 208.729 97.9737 209.627 97.6225 210.485C96.8809 212.437 95.4368 214.388 93.4072 215.091C91.1045 215.832 88.4114 214.701 86.1868 214.271C82.7912 213.569 79.3956 213.725 76 213.217C78.0295 210.876 81.6593 210.641 83.7279 208.222C85.7184 205.919 85.8745 202.289 88.0992 200.064C88.0992 202.718 85.4452 204.709 85.4452 207.363C85.4452 207.285 87.7089 206.153 87.9431 205.997C88.6847 205.529 89.3482 205.021 89.9336 204.358C91.1435 203.031 92.0022 201.469 92.9779 199.986C94.1098 198.308 95.4758 196.786 96.959 195.381C97.8176 194.561 98.9104 193.546 99.9642 193C97.3493 195.888 94.2269 198.464 93.6024 202.562C93.4463 203.499 93.134 205.06 94.5781 204.358C95.3978 203.967 96.1003 203.109 95.9832 202.172C95.749 202.679 96.4125 203.733 96.4516 204.358C96.5296 205.411 95.6319 206.075 95.4368 207.012C95.0855 208.456 96.5687 207.441 97.0761 207.012C98.9104 205.45 100.12 203.304 102.072 201.938Z" fill="url(#paint11_linear_91_2)"/>
<path d="M108.785 212.593C110.385 211.735 111.166 209.354 111.908 207.754C112.922 205.997 114.405 204.904 115.654 203.421C114.64 204.904 112.181 208.261 112.805 210.134C114.288 209.003 115.537 206.895 116.396 205.412C117.645 203.421 118.386 200.806 119.987 199.206C119.245 199.948 118.972 201.431 118.621 202.446C118.113 204.046 117.762 205.568 117.489 207.285C117.098 209.9 115.889 211.032 114.64 212.984C115.889 212.749 116.864 210.603 117.138 209.51C116.513 210.486 116.513 212.008 116.006 213.101C115.498 214.467 114.64 215.833 113.898 217.082C113.039 218.565 112.298 220.946 110.893 221.921C110.385 221.297 110.268 219.814 110.034 218.955C109.644 217.706 108.902 216.223 108.785 214.974" fill="url(#paint12_linear_91_2)"/>
<path d="M92.471 222.545C92.432 222.623 92.7832 223.443 92.7832 223.638C92.8223 224.223 92.6661 224.887 92.51 225.433C92.1978 226.448 91.3782 227.189 91.0269 228.165C90.6756 229.102 91.3001 230.273 90.7927 231.092C90.1292 232.302 86.9288 232.146 85.8359 231.912C86.1091 230.975 87.163 230.429 87.6313 229.57C87.9045 229.102 88.9974 227.58 89.0754 227.15C88.9583 227.892 88.3338 228.399 88.3338 229.258C89.0754 228.868 89.9341 227.658 90.4415 226.877C91.4562 225.511 91.8465 224.145 92.471 222.545Z" fill="url(#paint13_linear_91_2)"/>
<path d="M149.727 216.184C148.517 214.467 147.347 212.75 145.083 212.398C144.263 212.281 139.463 211.501 139.072 212.047C140.399 210.291 144.38 209.003 144.38 206.349C144.263 207.325 143.756 208.339 143.639 209.315C144.263 209.042 145.122 208.534 145.512 207.949C145.746 207.598 145.863 207.207 146.098 206.856C146.371 206.427 146.761 206.076 147.112 205.763C147.659 205.295 148.244 204.905 148.791 204.514C148.4 204.788 147.932 205.178 147.737 205.607C147.62 205.841 147.269 206.544 147.698 206.622C148.166 206.7 148.556 205.998 148.83 205.724C149.181 205.373 149.493 204.866 149.532 204.358C149.532 204.632 149.649 204.944 149.61 205.256C149.571 205.529 149.571 205.88 149.454 206.115C149.064 206.856 148.322 207.286 148.049 208.105C147.932 208.534 147.893 208.925 148.166 209.315C148.283 209.51 148.596 209.705 148.83 209.705C149.064 209.705 149.142 209.51 149.259 209.354C149.61 208.925 149.962 208.534 150.274 208.066C150.781 207.364 151.171 206.466 151.796 205.841C151.562 206.7 149.454 210.564 151.679 209.432C153.123 208.691 153.279 205.607 153.826 204.241C153.318 206.817 153.396 209.783 153.279 212.398C153.24 213.101 152.694 213.608 153.786 213.53C154.528 213.491 155.426 212.164 155.621 211.579C155.113 212.437 154.177 214.311 154.294 215.404C155.933 214.35 157.104 212.047 156.87 210.096C156.284 211.149 156.401 213.179 156.245 214.467C156.011 216.106 155.816 217.824 155.387 219.424C154.879 221.219 154.45 224.771 152.85 225.864C152.381 224.498 152.42 222.858 152.069 221.414C151.64 219.502 150.859 217.824 149.727 216.184Z" fill="url(#paint14_linear_91_2)"/>
<path d="M89.5825 316.476L86.3835 322.39V342.288H76V277.553H86.3835V305.73L99.966 277.553H110.35L95.8755 306.398L110.35 342.288H99.7038L89.5825 316.476Z" fill="white"/>
<path d="M115.634 277.553H124.882V342.288H115.634V277.553Z" fill="white"/>
<path d="M130.167 277.553H161.874V286.808H151.149V342.288H140.891V286.808H130.167V277.553Z" fill="white"/>
<path d="M163.195 277.553H194.902V286.808H184.178V342.288H173.919V286.808H163.195V277.553Z" fill="white"/>
<path d="M210.36 304.834H224.334V314.082H210.36V333.041H227.931V342.288H200.187V277.553H227.931V286.801H210.36V304.834Z" fill="white"/>
<path d="M243.898 295.395V342.288H234.537V277.553H247.632L258.309 316.271V277.553H267.565V342.288H256.889L243.898 295.395Z" fill="white"/>
<path d="M288.757 276.232C299.129 276.232 304.449 282.253 304.449 292.776V294.87H294.4V292.148C294.4 287.436 292.465 285.656 289.079 285.656C285.694 285.656 283.759 287.436 283.759 292.148C283.759 305.707 304.557 308.22 304.557 327.067C304.557 337.59 299.129 343.61 288.703 343.61C278.277 343.61 272.85 337.59 272.85 327.067V323.036H282.899V327.748C282.899 332.459 285.049 334.135 288.435 334.135C291.82 334.135 293.97 332.459 293.97 327.748C293.97 314.188 273.172 311.675 273.172 292.828C273.118 282.253 278.439 276.232 288.757 276.232Z" fill="white"/>
<path d="M115.42 201.626C115.146 200.377 115.42 199.05 115.966 197.918C116.239 197.332 116.591 196.786 117.059 196.357C117.449 195.966 117.996 195.732 118.425 195.42C117.254 196.552 117.059 197.41 116.591 198.894C116.317 199.791 115.42 200.65 115.42 201.626Z" fill="url(#paint15_linear_91_2)"/>
<path d="M76.0396 259.195H96.9595V252.248H83.4942V237.807H93.9542V230.86H83.4942V217.434H96.9595V210.486H76.0396V259.195Z" fill="url(#paint16_linear_91_2)"/>
<path d="M127.207 210.486H120.104L114.171 228.44L108.356 210.486H100.433L108.434 234.138L99.8472 259.195H107.029L113.39 239.915L119.674 259.195H127.753L119.167 234.138L127.207 210.486Z" fill="url(#paint17_linear_91_2)"/>
<path d="M142.896 210.486H131.812V259.195H139.267V240.812H142.896C150.585 240.812 154.215 236.519 154.215 228.713V222.39C154.215 214.584 150.546 210.486 142.896 210.486ZM146.721 229.221C146.721 232.694 145.316 233.865 142.896 233.865H139.267V217.473H142.896C145.355 217.473 146.721 218.448 146.721 221.922V229.221Z" fill="url(#paint18_linear_91_2)"/>
<path d="M165.652 210.486H157.689V259.195H178.102V252.248H165.652V210.486Z" fill="url(#paint19_linear_91_2)"/>
<path d="M192.543 209.782C185.01 209.782 181.107 214.232 181.107 222.038V247.368C181.107 255.174 185.01 259.623 192.543 259.623C200.076 259.623 203.979 255.174 203.979 247.368V222.038C203.979 214.232 200.076 209.782 192.543 209.782ZM196.524 247.875C196.524 251.349 194.963 252.676 192.543 252.676C190.084 252.676 188.562 251.349 188.562 247.875V221.53C188.562 218.057 190.123 216.73 192.543 216.73C195.002 216.73 196.524 218.057 196.524 221.53V247.875Z" fill="url(#paint20_linear_91_2)"/>
<path d="M221.308 210.486H208.975V259.195H221.308C228.997 259.195 232.9 254.824 232.9 247.018V222.39C232.861 214.584 228.958 210.486 221.308 210.486ZM224.899 247.369C224.899 250.843 223.572 252.209 221.152 252.209H216.937V217.434H221.152C223.611 217.434 224.899 218.565 224.899 222.039V247.369Z" fill="url(#paint21_linear_91_2)"/>
<path d="M245.311 210.486H237.856V259.195H245.311V210.486Z" fill="url(#paint22_linear_91_2)"/>
<path d="M268.221 239.524L260.415 210.486H250.814V259.195H257.761V223.756L267.245 259.195H275.208V210.486H268.221V239.524Z" fill="url(#paint23_linear_91_2)"/>
<path d="M303.075 226.877V222.038C303.075 214.232 299.172 209.782 291.639 209.782C284.107 209.782 280.204 214.232 280.204 222.038V247.368C280.204 255.174 284.107 259.623 291.639 259.623C299.172 259.623 303.075 255.174 303.075 247.368V231.834H292.108V238.781H295.581V247.836C295.581 251.31 294.02 252.559 291.6 252.559C289.141 252.559 287.619 251.31 287.619 247.836V221.53C287.619 218.057 289.18 216.73 291.6 216.73C294.059 216.73 295.581 218.057 295.581 221.53V226.877H303.075Z" fill="url(#paint24_linear_91_2)"/>
<path d="M306.354 230.352C306.197 231.133 305.417 231.445 305.183 232.187C305.222 231.601 305.612 231.094 305.768 230.547C305.924 229.962 305.963 229.259 305.807 228.674C306.197 229.064 306.471 229.806 306.354 230.352Z" fill="url(#paint25_linear_91_2)"/>
<path d="M250.541 201.04C250.385 201.196 250.268 202.835 250.151 203.187C249.956 203.85 249.643 204.436 249.37 205.099C248.941 206.231 248.824 207.402 248.512 208.573C248.434 207.246 248.551 205.06 249.097 203.85C249.448 203.07 249.956 201.625 250.541 201.04Z" fill="url(#paint26_linear_91_2)"/>
<path d="M222.869 206.974C222.479 204.866 224.352 202.837 225.64 201.432C225.328 202.407 225.289 203.578 224.742 204.476C224.118 205.413 222.83 205.608 222.869 206.974Z" fill="url(#paint27_linear_91_2)"/>
<path d="M173.652 244.832C173.262 245.729 172.013 246.9 172.286 247.993C172.052 246.861 172.247 245.612 172.677 244.519C172.833 244.09 173.067 243.661 173.301 243.27C173.535 242.88 173.808 242.529 173.925 242.061C174.082 242.178 174.043 242.49 173.965 242.646C173.925 242.841 173.886 242.997 173.886 243.231C173.886 243.778 173.886 244.363 173.652 244.832Z" fill="url(#paint28_linear_91_2)"/>
<path d="M169.789 244.598C169.867 244.247 170.53 244.091 170.608 243.466C170.647 242.959 170.335 242.335 170.023 241.944C169.984 242.842 170.023 243.74 169.789 244.598Z" fill="url(#paint29_linear_91_2)"/>
<path d="M153.669 201.119C153.825 201.158 153.552 201.509 153.474 201.627C153.318 202.017 153.318 202.407 153.162 202.797C152.967 203.344 152.108 203.734 152.303 204.398C152.303 204.046 152.342 203.773 152.459 203.422C152.576 203.071 152.576 202.68 152.693 202.329C152.849 201.822 153.162 201.314 153.708 201.158" fill="url(#paint30_linear_91_2)"/>
<path d="M294.41 200.299C294.176 200.845 294.215 201.509 294.098 202.094C294.02 202.445 293.747 202.718 293.63 203.07C293.473 203.421 293.356 203.772 293.356 204.163C293.239 203.733 293.239 203.187 293.356 202.758C293.434 202.406 293.473 202.016 293.512 201.665C293.63 201.001 294.059 200.533 294.527 200.064" fill="url(#paint31_linear_91_2)"/>
<path d="M298.781 206.972C299.015 207.245 298.82 207.597 298.742 207.87C298.625 208.299 298.703 208.729 298.82 209.119C298.703 208.651 299.015 208.377 299.211 208.026C299.367 207.753 299.406 207.128 299.328 206.816C299.172 206.348 298.742 207.128 298.664 207.363C298.43 207.987 298.664 208.533 298.625 209.158C298.625 208.963 298.664 208.416 298.898 208.26C298.937 208.455 298.937 208.65 299.015 208.846C299.093 208.611 299.015 208.338 299.094 208.104C299.172 207.831 299.406 207.558 299.562 207.323C299.796 206.972 299.835 206.621 299.874 206.231C299.913 205.918 299.991 205.606 299.952 205.294C299.952 205.528 299.874 205.723 299.757 205.918C299.601 206.114 299.328 206.309 299.211 206.543C299.172 206.699 299.25 206.738 299.25 206.894C299.25 207.089 299.094 207.206 299.094 207.402C298.976 207.206 298.898 207.089 298.781 206.972C298.781 206.933 298.82 206.972 298.82 206.972H298.781Z" fill="url(#paint32_linear_91_2)"/>
<g filter="url(#filter0_i_91_2)">
<path d="M230.637 150.555C229.797 147.486 228.75 144.521 227.962 141.453C226.806 137.106 227.14 130.909 224.18 127.338C222.777 125.655 221.583 124.226 220.541 122.234C219.603 120.395 218.664 118.505 217.108 117.078C217.066 119.177 219.779 125.207 218.546 126.851C217.879 127.776 216.016 127.169 215.189 126.968C213.379 126.567 211.622 126.37 209.762 126.327C207.747 126.284 205.323 127.37 203.359 127.021C201.704 126.721 199.473 124.478 198.074 123.511C195.586 121.781 193.094 118.925 190.402 117.811C191.551 120.519 193.68 123.07 195.499 125.366C197.109 127.356 196.698 127.972 195.416 130.128C194.494 131.719 193.829 133.361 193.269 135.104C193.014 135.975 192.815 137.615 192.146 138.335C191.426 139.055 189.567 139.114 188.483 139.272C182.185 140.478 175.888 141.735 170.063 144.577C164.083 147.521 157.805 152.925 156.232 159.537C155.877 161.075 155.988 162.713 155.582 164.251C155.48 164.609 155.378 164.968 155.276 165.327C151.258 167.803 147.243 171.097 147.265 176.115C147.047 185.127 157.252 191.533 165.213 192.624C168.883 193.171 174.98 193.298 177.964 190.469C180.382 188.205 176.245 187.251 174.539 187.105C171.127 186.556 167.719 186.981 164.308 186.587C161.465 186.19 158.774 185.229 156.236 183.653C153.957 182.28 151.106 180.194 151.402 177.069C151.547 174.713 153.087 172.556 154.731 170.603C154.953 174.033 156.002 177.459 158.235 180.162C160.417 182.815 165.479 182.741 168.631 182.779C170.077 182.772 173.695 183.166 174.256 181.371C174.612 180.243 173.316 179.174 173.002 178.305C174.241 178.043 175.745 179.368 176.986 179.618C179.21 180.121 181.64 180.673 183.966 180.867C187.067 181.161 190.577 180.531 193.575 180.979C192.247 184.415 205.537 187.223 202.668 180.938C205.15 181.439 207.783 181.172 210.264 181.365C211.142 181.413 218.065 181.382 218.268 180.613C217.911 181.69 215.897 181.904 216.524 183.539C217.1 185.124 219.683 185.112 221.025 185.004C223.298 184.892 225.571 184.933 227.895 184.769C230.013 184.657 232.183 184.699 233.208 182.749C234.335 180.644 234.578 177.315 234.775 175.01C235.514 166.917 232.789 158.328 230.637 150.555ZM202.072 139.775C195.917 138.113 198.972 128.115 204.663 129.933C206.267 130.438 207.152 132.073 207.521 133.607C208.415 137.341 206.313 140.883 202.072 139.775ZM216.85 140.376C210.695 138.713 213.75 128.715 219.441 130.482C221.044 130.987 221.93 132.622 222.298 134.156C223.193 137.941 221.039 141.483 216.85 140.376Z" fill="url(#paint33_linear_91_2)"/>
</g>
</g>
<defs>
<filter id="filter0_i_91_2" x="147.262" y="117.078" width="87.6367" height="75.8594" filterUnits="userSpaceOnUse" color-interpolation-filters="sRGB">
<feFlood flood-opacity="0" result="BackgroundImageFix"/>
<feBlend mode="normal" in="SourceGraphic" in2="BackgroundImageFix" result="shape"/>
<feColorMatrix in="SourceAlpha" type="matrix" values="0 0 0 0 0 0 0 0 0 0 0 0 0 0 0 0 0 0 127 0" result="hardAlpha"/>
<feOffset/>
<feGaussianBlur stdDeviation="2.65"/>
<feComposite in2="hardAlpha" operator="arithmetic" k2="-1" k3="1"/>
<feColorMatrix type="matrix" values="0 0 0 0 0 0 0 0 0 0 0 0 0 0 0 0 0 0 0.25 0"/>
<feBlend mode="normal" in2="shape" result="effect1_innerShadow_91_2"/>
</filter>
<radialGradient id="paint0_radial_91_2" cx="0" cy="0" r="1" gradientUnits="userSpaceOnUse" gradientTransform="translate(191.5 238) rotate(90) scale(238 191.5)">
<stop stop-opacity="0"/>
<stop offset="1"/>
</radialGradient>
<linearGradient id="paint1_linear_91_2" x1="95.9023" y1="245.65" x2="95.9023" y2="256.581" gradientUnits="userSpaceOnUse">
<stop stop-color="#FFDD15"/>
<stop offset="1" stop-color="#ED1C24"/>
</linearGradient>
<linearGradient id="paint2_linear_91_2" x1="291.356" y1="243.505" x2="291.356" y2="252.995" gradientUnits="userSpaceOnUse">
<stop stop-color="#FFDD15"/>
<stop offset="1" stop-color="#ED1C24"/>
</linearGradient>
<linearGradient id="paint3_linear_91_2" x1="302.995" y1="228.244" x2="302.995" y2="254.277" gradientUnits="userSpaceOnUse">
<stop stop-color="#FFDD15"/>
<stop offset="1" stop-color="#ED1C24"/>
</linearGradient>
<linearGradient id="paint4_linear_91_2" x1="15569.9" y1="640.242" x2="15852" y2="1086.33" gradientUnits="userSpaceOnUse">
<stop stop-color="#ED1C24"/>
<stop offset="1" stop-color="#FCEE21"/>
</linearGradient>
<linearGradient id="paint5_linear_91_2" x1="258.806" y1="244.13" x2="258.806" y2="258.649" gradientUnits="userSpaceOnUse">
<stop stop-color="#FFDD15"/>
<stop offset="1" stop-color="#ED1C24"/>
</linearGradient>
<linearGradient id="paint6_linear_91_2" x1="263.599" y1="210.174" x2="263.599" y2="225.161" gradientUnits="userSpaceOnUse">
<stop stop-color="#FFDD15"/>
<stop offset="1" stop-color="#ED1C24"/>
</linearGradient>
<linearGradient id="paint7_linear_91_2" x1="220.53" y1="201.547" x2="220.53" y2="212.835" gradientUnits="userSpaceOnUse">
<stop stop-color="#FFDD15"/>
<stop offset="1" stop-color="#ED1C24"/>
</linearGradient>
<linearGradient id="paint8_linear_91_2" x1="245.253" y1="206.036" x2="245.253" y2="243.851" gradientUnits="userSpaceOnUse">
<stop stop-color="#FFDD15"/>
<stop offset="1" stop-color="#ED1C24"/>
</linearGradient>
<linearGradient id="paint9_linear_91_2" x1="169.711" y1="245.494" x2="169.711" y2="253.334" gradientUnits="userSpaceOnUse">
<stop stop-color="#FFDD15"/>
<stop offset="1" stop-color="#ED1C24"/>
</linearGradient>
<linearGradient id="paint10_linear_91_2" x1="192.047" y1="237.377" x2="192.047" y2="254.288" gradientUnits="userSpaceOnUse">
<stop stop-color="#FFDD15"/>
<stop offset="1" stop-color="#ED1C24"/>
</linearGradient>
<linearGradient id="paint11_linear_91_2" x1="89.0359" y1="193" x2="89.0359" y2="215.337" gradientUnits="userSpaceOnUse">
<stop stop-color="#FFDD15"/>
<stop offset="1" stop-color="#ED1C24"/>
</linearGradient>
<linearGradient id="paint12_linear_91_2" x1="114.386" y1="199.206" x2="114.386" y2="221.921" gradientUnits="userSpaceOnUse">
<stop stop-color="#FFDD15"/>
<stop offset="1" stop-color="#ED1C24"/>
</linearGradient>
<linearGradient id="paint13_linear_91_2" x1="89.3126" y1="222.545" x2="89.3126" y2="232.075" gradientUnits="userSpaceOnUse">
<stop stop-color="#FFDD15"/>
<stop offset="1" stop-color="#ED1C24"/>
</linearGradient>
<linearGradient id="paint14_linear_91_2" x1="147.986" y1="204.241" x2="147.986" y2="225.864" gradientUnits="userSpaceOnUse">
<stop stop-color="#FFDD15"/>
<stop offset="1" stop-color="#ED1C24"/>
</linearGradient>
<linearGradient id="paint15_linear_91_2" x1="116.869" y1="195.42" x2="116.869" y2="201.626" gradientUnits="userSpaceOnUse">
<stop stop-color="#FFDD15"/>
<stop offset="1" stop-color="#ED1C24"/>
</linearGradient>
<linearGradient id="paint16_linear_91_2" x1="86.4995" y1="210.486" x2="86.4995" y2="259.195" gradientUnits="userSpaceOnUse">
<stop stop-color="#FFDD15"/>
<stop offset="1" stop-color="#ED1C24"/>
</linearGradient>
<linearGradient id="paint17_linear_91_2" x1="113.8" y1="210.486" x2="113.8" y2="259.195" gradientUnits="userSpaceOnUse">
<stop stop-color="#FFDD15"/>
<stop offset="1" stop-color="#ED1C24"/>
</linearGradient>
<linearGradient id="paint18_linear_91_2" x1="143.014" y1="210.486" x2="143.014" y2="259.195" gradientUnits="userSpaceOnUse">
<stop stop-color="#FFDD15"/>
<stop offset="1" stop-color="#ED1C24"/>
</linearGradient>
<linearGradient id="paint19_linear_91_2" x1="167.896" y1="210.486" x2="167.896" y2="259.195" gradientUnits="userSpaceOnUse">
<stop stop-color="#FFDD15"/>
<stop offset="1" stop-color="#ED1C24"/>
</linearGradient>
<linearGradient id="paint20_linear_91_2" x1="192.543" y1="209.782" x2="192.543" y2="259.623" gradientUnits="userSpaceOnUse">
<stop stop-color="#FFDD15"/>
<stop offset="1" stop-color="#ED1C24"/>
</linearGradient>
<linearGradient id="paint21_linear_91_2" x1="220.937" y1="210.486" x2="220.937" y2="259.195" gradientUnits="userSpaceOnUse">
<stop stop-color="#FFDD15"/>
<stop offset="1" stop-color="#ED1C24"/>
</linearGradient>
<linearGradient id="paint22_linear_91_2" x1="241.583" y1="210.486" x2="241.583" y2="259.195" gradientUnits="userSpaceOnUse">
<stop stop-color="#FFDD15"/>
<stop offset="1" stop-color="#ED1C24"/>
</linearGradient>
<linearGradient id="paint23_linear_91_2" x1="263.011" y1="210.486" x2="263.011" y2="259.195" gradientUnits="userSpaceOnUse">
<stop stop-color="#FFDD15"/>
<stop offset="1" stop-color="#ED1C24"/>
</linearGradient>
<linearGradient id="paint24_linear_91_2" x1="291.639" y1="209.782" x2="291.639" y2="259.623" gradientUnits="userSpaceOnUse">
<stop stop-color="#FFDD15"/>
<stop offset="1" stop-color="#ED1C24"/>
</linearGradient>
<linearGradient id="paint25_linear_91_2" x1="305.782" y1="228.674" x2="305.782" y2="232.187" gradientUnits="userSpaceOnUse">
<stop stop-color="#FFDD15"/>
<stop offset="1" stop-color="#ED1C24"/>
</linearGradient>
<linearGradient id="paint26_linear_91_2" x1="249.515" y1="201.04" x2="249.515" y2="208.573" gradientUnits="userSpaceOnUse">
<stop stop-color="#FFDD15"/>
<stop offset="1" stop-color="#ED1C24"/>
</linearGradient>
<linearGradient id="paint27_linear_91_2" x1="224.228" y1="201.432" x2="224.228" y2="206.974" gradientUnits="userSpaceOnUse">
<stop stop-color="#FFDD15"/>
<stop offset="1" stop-color="#ED1C24"/>
</linearGradient>
<linearGradient id="paint28_linear_91_2" x1="173.109" y1="242.061" x2="173.109" y2="247.993" gradientUnits="userSpaceOnUse">
<stop stop-color="#FFDD15"/>
<stop offset="1" stop-color="#ED1C24"/>
</linearGradient>
<linearGradient id="paint29_linear_91_2" x1="170.2" y1="241.944" x2="170.2" y2="244.598" gradientUnits="userSpaceOnUse">
<stop stop-color="#FFDD15"/>
<stop offset="1" stop-color="#ED1C24"/>
</linearGradient>
<linearGradient id="paint30_linear_91_2" x1="152.995" y1="201.119" x2="152.995" y2="204.398" gradientUnits="userSpaceOnUse">
<stop stop-color="#FFDD15"/>
<stop offset="1" stop-color="#ED1C24"/>
</linearGradient>
<linearGradient id="paint31_linear_91_2" x1="293.898" y1="200.064" x2="293.898" y2="204.163" gradientUnits="userSpaceOnUse">
<stop stop-color="#FFDD15"/>
<stop offset="1" stop-color="#ED1C24"/>
</linearGradient>
<linearGradient id="paint32_linear_91_2" x1="299.261" y1="205.294" x2="299.261" y2="209.158" gradientUnits="userSpaceOnUse">
<stop stop-color="#FFDD15"/>
<stop offset="1" stop-color="#ED1C24"/>
</linearGradient>
<linearGradient id="paint33_linear_91_2" x1="190.827" y1="117.194" x2="191.162" y2="192.841" gradientUnits="userSpaceOnUse">
<stop stop-color="#FFDD15"/>
<stop offset="1" stop-color="#ED1C24"/>
</linearGradient>
<clipPath id="clip0_91_2">
<rect width="383" height="476" fill="white"/>
</clipPath>
</defs>
</svg>
